<svg width="36" height="36" viewBox="0 0 36 36" fill="none" xmlns="http://www.w3.org/2000/svg">
<rect width="36" height="36" rx="18" fill="#00B45F"/>
<path d="M27.625 15.7656C27.625 21.7812 18.7055 26.6505 18.3257 26.8516C18.2256 26.9054 18.1137 26.9336 18 26.9336C17.8863 26.9336 17.7744 26.9054 17.6743 26.8516C17.3864 26.6969 12.213 23.8704 9.70961 19.9001C9.67732 19.8481 9.6595 19.7884 9.658 19.7272C9.65649 19.666 9.67136 19.6055 9.70106 19.552C9.73076 19.4984 9.77421 19.4538 9.82693 19.4227C9.87965 19.3916 9.93972 19.3751 10.0009 19.375H13.1875C13.3007 19.3751 13.4122 19.3472 13.512 19.2938C13.6119 19.2404 13.697 19.1632 13.7598 19.0691L14.5625 17.8659L16.7402 21.1316C16.8236 21.2567 16.9458 21.351 17.088 21.4001C17.2301 21.4491 17.3845 21.4502 17.5273 21.4031C17.6789 21.3518 17.8085 21.2506 17.8952 21.1161L19.0553 19.375H20.75C20.8442 19.3752 20.9375 19.356 21.0241 19.3187C21.1106 19.2813 21.1885 19.2266 21.253 19.1578C21.3174 19.0891 21.3671 19.0078 21.3988 18.9191C21.4306 18.8303 21.4437 18.736 21.4375 18.642C21.4221 18.4652 21.3405 18.3009 21.209 18.1818C21.0775 18.0628 20.9059 17.9978 20.7285 18H18.6875C18.5743 17.9999 18.4628 18.0278 18.363 18.0812C18.2631 18.1346 18.178 18.2118 18.1152 18.3059L17.3125 19.5091L15.1348 16.2434C15.0514 16.1181 14.929 16.0237 14.7867 15.9746C14.6443 15.9256 14.4898 15.9246 14.3468 15.9719C14.1956 16.0235 14.0663 16.1246 13.9798 16.2589L12.8197 18H9.02211C8.94864 18.0002 8.87704 17.9769 8.81781 17.9334C8.75858 17.8899 8.71482 17.8287 8.69297 17.7585C8.48562 17.1144 8.37838 16.4423 8.375 15.7656C8.37659 14.353 8.93846 12.9987 9.93733 11.9998C10.9362 11.001 12.2905 10.4391 13.7031 10.4375C15.4777 10.4375 17.0315 11.2006 18 12.4905C18.9685 11.2006 20.5223 10.4375 22.2969 10.4375C23.7095 10.4391 25.0638 11.001 26.0627 11.9998C27.0615 12.9987 27.6234 14.353 27.625 15.7656Z" fill="#F2F2F2"/>
</svg>
