<svg width="36" height="36" viewBox="0 0 36 36" fill="none" xmlns="http://www.w3.org/2000/svg">
<rect width="36" height="36" rx="18" fill="#FF4234"/>
<path d="M28.3073 13.8071C28.2961 13.6917 28.2559 13.5809 28.1904 13.4852C28.1249 13.3895 28.0362 13.3119 27.9327 13.2597L23.9546 11.2711C23.4605 10.3722 22.229 9.75 20.75 9.75C18.8224 9.75 17.3125 10.807 17.3125 12.1562C17.3127 12.347 17.3434 12.5364 17.4036 12.7174L15.7261 13.5562C15.1411 13.307 14.5108 13.1815 13.875 13.1875C11.9474 13.1875 10.4375 14.2445 10.4375 15.5938C10.4377 15.7845 10.4684 15.9739 10.5286 16.1549L8.06734 17.3847C7.95312 17.4418 7.85708 17.5297 7.78999 17.6384C7.7229 17.7471 7.68741 17.8723 7.6875 18V23.5C7.68741 23.6277 7.7229 23.7529 7.78999 23.8616C7.85708 23.9703 7.95312 24.0582 8.06734 24.1153L13.5673 26.8653C13.6629 26.9131 13.7682 26.938 13.875 26.938C13.9818 26.938 14.0871 26.9131 14.1827 26.8653L27.9327 19.9903C28.0469 19.9332 28.1429 19.8453 28.21 19.7366C28.2771 19.6279 28.3126 19.5027 28.3125 19.375V13.875C28.3128 13.8523 28.311 13.8295 28.3073 13.8071ZM13.875 19.9817L9.91242 18L11.3828 17.2652C12.005 17.7198 12.885 18 13.875 18C15.8026 18 17.3125 16.943 17.3125 15.5938C17.3092 15.1943 17.1782 14.8065 16.9387 14.4869L18.2578 13.8277C18.88 14.2823 19.76 14.5625 20.75 14.5625C22.3295 14.5625 23.628 13.8527 24.0457 12.8541L26.0876 13.875L13.875 19.9817ZM20.75 11.125C21.801 11.125 22.614 11.5547 22.7807 11.9947C22.7807 12.0024 22.7867 12.0102 22.7902 12.0188C22.8047 12.0632 22.8122 12.1095 22.8125 12.1562C22.8125 12.6427 21.9308 13.1875 20.75 13.1875C19.9198 13.1875 19.2375 12.9177 18.9058 12.5859C18.8836 12.5571 18.8589 12.5303 18.8319 12.506C18.7455 12.4092 18.6946 12.2858 18.6875 12.1562C18.6875 11.6698 19.5692 11.125 20.75 11.125ZM13.875 14.5625C14.3853 14.5536 14.8902 14.6677 15.3471 14.8951C15.3745 14.9133 15.4032 14.9294 15.433 14.9432C15.7502 15.1331 15.9375 15.3729 15.9375 15.5938C15.9375 16.0802 15.0558 16.625 13.875 16.625C13.044 16.625 12.3616 16.3552 12.0299 16.0234C12.0081 15.9948 11.984 15.9681 11.9577 15.9435C11.8708 15.8469 11.8195 15.7235 11.8125 15.5938C11.8125 15.1073 12.6942 14.5625 13.875 14.5625ZM9.0625 19.112L13.1875 21.1745V25.138L9.0625 23.0755V19.112Z" fill="#F2F2F2"/>
</svg>
