<svg width="18" height="17" viewBox="0 0 18 17" fill="none" xmlns="http://www.w3.org/2000/svg">
<path d="M15.875 0.375H2.125C1.79348 0.375 1.47554 0.506696 1.24112 0.741116C1.0067 0.975537 0.875 1.29348 0.875 1.625V15.375C0.875 15.7065 1.0067 16.0245 1.24112 16.2589C1.47554 16.4933 1.79348 16.625 2.125 16.625H15.875C16.2065 16.625 16.5245 16.4933 16.7589 16.2589C16.9933 16.0245 17.125 15.7065 17.125 15.375V1.625C17.125 1.29348 16.9933 0.975537 16.7589 0.741116C16.5245 0.506696 16.2065 0.375 15.875 0.375ZM15.875 15.375H2.125V1.625H15.875V15.375ZM6.5 7.25V12.25C6.5 12.4158 6.43415 12.5747 6.31694 12.6919C6.19973 12.8092 6.04076 12.875 5.875 12.875C5.70924 12.875 5.55027 12.8092 5.43306 12.6919C5.31585 12.5747 5.25 12.4158 5.25 12.25V7.25C5.25 7.08424 5.31585 6.92527 5.43306 6.80806C5.55027 6.69085 5.70924 6.625 5.875 6.625C6.04076 6.625 6.19973 6.69085 6.31694 6.80806C6.43415 6.92527 6.5 7.08424 6.5 7.25ZM13.375 9.4375V12.25C13.375 12.4158 13.3092 12.5747 13.1919 12.6919C13.0747 12.8092 12.9158 12.875 12.75 12.875C12.5842 12.875 12.4253 12.8092 12.3081 12.6919C12.1908 12.5747 12.125 12.4158 12.125 12.25V9.4375C12.125 9.0231 11.9604 8.62567 11.6674 8.33265C11.3743 8.03962 10.9769 7.875 10.5625 7.875C10.1481 7.875 9.75067 8.03962 9.45765 8.33265C9.16462 8.62567 9 9.0231 9 9.4375V12.25C9 12.4158 8.93415 12.5747 8.81694 12.6919C8.69973 12.8092 8.54076 12.875 8.375 12.875C8.20924 12.875 8.05027 12.8092 7.93306 12.6919C7.81585 12.5747 7.75 12.4158 7.75 12.25V7.25C7.75078 7.09691 7.80771 6.94943 7.91001 6.83553C8.01231 6.72164 8.15285 6.64925 8.30498 6.6321C8.45711 6.61495 8.61024 6.65423 8.73533 6.7425C8.86041 6.83076 8.94876 6.96186 8.98359 7.11094C9.4064 6.82412 9.89934 6.65789 10.4095 6.63009C10.9196 6.6023 11.4277 6.71399 11.8792 6.95317C12.3306 7.19236 12.7084 7.55 12.972 7.98769C13.2355 8.42538 13.3748 8.92659 13.375 9.4375ZM6.8125 5.0625C6.8125 5.24792 6.75752 5.42918 6.6545 5.58335C6.55149 5.73752 6.40507 5.85768 6.23377 5.92864C6.06246 5.99959 5.87396 6.01816 5.6921 5.98199C5.51025 5.94581 5.3432 5.85652 5.21209 5.72541C5.08098 5.5943 4.99169 5.42725 4.95551 5.2454C4.91934 5.06354 4.93791 4.87504 5.00886 4.70373C5.07982 4.53243 5.19998 4.38601 5.35415 4.283C5.50832 4.17998 5.68958 4.125 5.875 4.125C6.12364 4.125 6.3621 4.22377 6.53791 4.39959C6.71373 4.5754 6.8125 4.81386 6.8125 5.0625Z" fill="#313C58"/>
</svg>
