<svg width="36" height="36" viewBox="0 0 36 36" fill="none" xmlns="http://www.w3.org/2000/svg">
<rect width="36" height="36" rx="18" fill="#0063FF"/>
<path d="M26.9375 15.9375C27.1198 15.9375 27.2947 15.8651 27.4236 15.7361C27.5526 15.6072 27.625 15.4323 27.625 15.25V12.5C27.625 12.1353 27.4801 11.7856 27.2223 11.5277C26.9644 11.2699 26.6147 11.125 26.25 11.125H9.75C9.38533 11.125 9.03559 11.2699 8.77773 11.5277C8.51987 11.7856 8.375 12.1353 8.375 12.5V15.25C8.375 15.4323 8.44743 15.6072 8.57636 15.7361C8.7053 15.8651 8.88016 15.9375 9.0625 15.9375C9.60951 15.9375 10.1341 16.1548 10.5209 16.5416C10.9077 16.9284 11.125 17.453 11.125 18C11.125 18.547 10.9077 19.0716 10.5209 19.4584C10.1341 19.8452 9.60951 20.0625 9.0625 20.0625C8.88016 20.0625 8.7053 20.1349 8.57636 20.2639C8.44743 20.3928 8.375 20.5677 8.375 20.75V23.5C8.375 23.8647 8.51987 24.2144 8.77773 24.4723C9.03559 24.7301 9.38533 24.875 9.75 24.875H26.25C26.6147 24.875 26.9644 24.7301 27.2223 24.4723C27.4801 24.2144 27.625 23.8647 27.625 23.5V20.75C27.625 20.5677 27.5526 20.3928 27.4236 20.2639C27.2947 20.1349 27.1198 20.0625 26.9375 20.0625C26.3905 20.0625 25.8659 19.8452 25.4791 19.4584C25.0923 19.0716 24.875 18.547 24.875 18C24.875 17.453 25.0923 16.9284 25.4791 16.5416C25.8659 16.1548 26.3905 15.9375 26.9375 15.9375ZM9.75 21.3687C10.5271 21.211 11.2257 20.7894 11.7275 20.1754C12.2293 19.5615 12.5034 18.7929 12.5034 18C12.5034 17.2071 12.2293 16.4385 11.7275 15.8246C11.2257 15.2106 10.5271 14.789 9.75 14.6313V12.5H14.5625V23.5H9.75V21.3687Z" fill="#F2F2F2"/>
</svg>
