<svg width="36" height="36" viewBox="0 0 36 36" fill="none" xmlns="http://www.w3.org/2000/svg">
<rect width="36" height="36" rx="18" fill="#FFA622"/>
<path d="M26.7371 25.7635L22.576 21.6032C22.6705 21.5749 22.7642 21.5448 22.857 21.5113C24.1412 21.0435 25.1871 20.0851 25.765 18.8465C26.3428 17.608 26.4053 16.1907 25.9387 14.9061C25.8763 14.7349 25.7485 14.5954 25.5833 14.5184C25.4182 14.4414 25.2292 14.4331 25.0579 14.4953L21.2594 15.8772C21.2869 15.8239 21.3144 15.7707 21.3394 15.7157C21.7705 14.7917 21.9181 13.7607 21.7634 12.7528C21.6087 11.745 21.1587 10.8057 20.4702 10.0536C19.7818 9.30153 18.8858 8.77043 17.8956 8.52745C16.9054 8.28448 15.8653 8.34054 14.9069 8.68855C14.8218 8.7191 14.7436 8.76614 14.6767 8.82697C14.6098 8.8878 14.5556 8.96123 14.5171 9.04305C14.4786 9.12487 14.4567 9.21348 14.4525 9.3038C14.4483 9.39412 14.462 9.48438 14.4927 9.56941L15.8754 13.3696C15.8213 13.3421 15.768 13.3137 15.713 13.2836C14.7889 12.853 13.7578 12.706 12.7501 12.8612C11.7424 13.0165 10.8034 13.4669 10.0517 14.1557C9.29998 14.8445 8.76935 15.7407 8.52686 16.731C8.28437 17.7213 8.34092 18.7613 8.68935 19.7195C8.75174 19.8907 8.87957 20.0302 9.04475 20.1072C9.20992 20.1842 9.39892 20.1925 9.57021 20.1303L13.3686 18.7475C13.3411 18.8017 13.3136 18.855 13.2887 18.91C12.8581 19.8341 12.7111 20.8652 12.8663 21.8729C13.0216 22.8805 13.472 23.8196 14.1608 24.5713C14.8496 25.323 15.7458 25.8536 16.7361 26.0961C17.7264 26.3386 18.7664 26.2821 19.7246 25.9336C19.8958 25.8712 20.0353 25.7434 20.1123 25.5782C20.1893 25.4131 20.1976 25.2241 20.1354 25.0528L18.7535 21.256C18.8068 21.2827 18.8601 21.3093 18.9151 21.3343C19.5217 21.6183 20.1779 21.7812 20.8469 21.8138L25.7643 26.732C25.8933 26.861 26.0682 26.9335 26.2507 26.9335C26.4331 26.9335 26.6081 26.861 26.7371 26.732C26.8661 26.603 26.9386 26.428 26.9386 26.2456C26.9386 26.0631 26.8661 25.8882 26.7371 25.7592V25.7635ZM16.3679 24.52C15.7431 24.2289 15.2097 23.7726 14.8254 23.2004C14.4412 22.6282 14.2206 21.9619 14.1876 21.2734C14.1546 20.5849 14.3104 19.9005 14.6382 19.2942C14.966 18.6878 15.4532 18.1826 16.0473 17.8332L18.5911 24.8225C17.8365 24.9511 17.0606 24.8455 16.3679 24.52ZM20.0976 15.1313C19.7751 15.8277 19.2473 16.4089 18.5851 16.7968L16.0404 9.80402C16.7202 9.68985 17.4182 9.76363 18.059 10.0174C18.6998 10.2712 19.2591 10.6953 19.6763 11.2438C20.0936 11.7924 20.353 12.4446 20.4265 13.1299C20.5 13.8152 20.3847 14.5076 20.0933 15.1321L20.0976 15.1313Z" fill="#F2F2F2"/>
</svg>
