<svg width="36" height="36" viewBox="0 0 36 36" fill="none" xmlns="http://www.w3.org/2000/svg">
<rect width="36" height="36" rx="18" fill="#927AFF"/>
<path d="M22.125 24.8097C22.5993 24.6228 23.0589 24.4008 23.5 24.1454V27.625C23.5 27.8073 23.4276 27.9822 23.2987 28.1111C23.1697 28.2401 22.9949 28.3125 22.8125 28.3125C22.6302 28.3125 22.4553 28.2401 22.3264 28.1111C22.1975 27.9822 22.125 27.8073 22.125 27.625V24.8097ZM23.1357 17.2102L18.3232 14.6433C18.1626 14.5613 17.9762 14.5456 17.8042 14.5997C17.6322 14.6538 17.4884 14.7732 17.4036 14.9324C17.3189 15.0915 17.3 15.2776 17.3511 15.4505C17.4023 15.6234 17.5192 15.7693 17.6769 15.8567L21.6953 18L23.1563 17.2214L23.1357 17.2102ZM28.6357 14.6433L18.3232 9.14329C18.2237 9.09032 18.1127 9.06262 18 9.06262C17.8873 9.06262 17.7764 9.09032 17.6769 9.14329L7.3644 14.6433C7.25441 14.7019 7.16242 14.7893 7.09827 14.8962C7.03413 15.0031 7.00024 15.1254 7.00024 15.25C7.00024 15.3746 7.03413 15.4969 7.09827 15.6038C7.16242 15.7107 7.25441 15.7981 7.3644 15.8567L9.75003 17.1295V21.2906C9.74931 21.6283 9.8736 21.9543 10.0989 22.2058C11.2247 23.4596 13.747 25.5625 18 25.5625C19.4102 25.5742 20.8099 25.3187 22.125 24.8097V18.2295L21.6953 18L18 19.9706L10.7667 16.1094L9.14847 15.25L18 10.5295L26.8516 15.25L25.2377 16.1094H25.2325L23.1563 17.2214C23.2608 17.2818 23.3476 17.3686 23.408 17.4731C23.4683 17.5777 23.5001 17.6963 23.5 17.817V24.1454C24.3965 23.6279 25.2067 22.9734 25.9011 22.2058C26.1265 21.9543 26.2507 21.6283 26.25 21.2906V17.1295L28.6357 15.8567C28.7456 15.7981 28.8376 15.7107 28.9018 15.6038C28.9659 15.4969 28.9998 15.3746 28.9998 15.25C28.9998 15.1254 28.9659 15.0031 28.9018 14.8962C28.8376 14.7893 28.7456 14.7019 28.6357 14.6433Z" fill="#F2F2F2"/>
</svg>
