<svg width="36" height="36" viewBox="0 0 36 36" fill="none" xmlns="http://www.w3.org/2000/svg">
<rect width="36" height="36" rx="18" fill="#FFA622"/>
<path d="M26.9375 12.5H24.875V11.125C24.875 10.9427 24.8026 10.7678 24.6736 10.6389C24.5447 10.5099 24.3698 10.4375 24.1875 10.4375H11.8125C11.6302 10.4375 11.4553 10.5099 11.3264 10.6389C11.1974 10.7678 11.125 10.9427 11.125 11.125V12.5H9.0625C8.69783 12.5 8.34809 12.6449 8.09023 12.9027C7.83237 13.1606 7.6875 13.5103 7.6875 13.875V15.25C7.6875 16.1617 8.04966 17.036 8.69432 17.6807C9.01352 17.9999 9.39247 18.2531 9.80953 18.4258C10.2266 18.5986 10.6736 18.6875 11.125 18.6875H11.4387C11.8436 19.9709 12.6158 21.1075 13.6597 21.9568C14.7036 22.8062 15.9736 23.331 17.3125 23.4665V25.5625H15.25C15.0677 25.5625 14.8928 25.6349 14.7639 25.7639C14.6349 25.8928 14.5625 26.0677 14.5625 26.25C14.5625 26.4323 14.6349 26.6072 14.7639 26.7361C14.8928 26.8651 15.0677 26.9375 15.25 26.9375H20.75C20.9323 26.9375 21.1072 26.8651 21.2361 26.7361C21.3651 26.6072 21.4375 26.4323 21.4375 26.25C21.4375 26.0677 21.3651 25.8928 21.2361 25.7639C21.1072 25.6349 20.9323 25.5625 20.75 25.5625H18.6875V23.4639C21.4323 23.1863 23.7097 21.2605 24.5381 18.6875H24.875C25.7867 18.6875 26.661 18.3253 27.3057 17.6807C27.9503 17.036 28.3125 16.1617 28.3125 15.25V13.875C28.3125 13.5103 28.1676 13.1606 27.9098 12.9027C27.6519 12.6449 27.3022 12.5 26.9375 12.5ZM11.125 17.3125C10.578 17.3125 10.0534 17.0952 9.66659 16.7084C9.2798 16.3216 9.0625 15.797 9.0625 15.25V13.875H11.125V16.625C11.125 16.8542 11.1362 17.0833 11.1585 17.3125H11.125ZM26.9375 15.25C26.9375 15.797 26.7202 16.3216 26.3334 16.7084C25.9466 17.0952 25.422 17.3125 24.875 17.3125H24.832C24.8602 17.0585 24.8746 16.8032 24.875 16.5477V13.875H26.9375V15.25Z" fill="#F2F2F2"/>
</svg>
