<svg width="293" height="470" viewBox="0 0 293 470" fill="none" xmlns="http://www.w3.org/2000/svg">
<path d="M202.775 261.678L201.176 39.0826C139.737 48.2118 114.686 95.7881 108.995 113.938L40.2641 109.122C35.4043 108.627 30.5845 110.379 27.1783 113.881L26.3187 114.765C19.5215 121.752 19.9036 132.992 27.1597 139.502C29.4702 141.574 32.3682 142.877 35.4521 143.229L98.5416 157.596C104.319 158.255 105.26 166.257 99.7942 168.24L-10.3739 209.757C-12.9325 210.685 -15.1481 212.369 -16.7267 214.586C-22.0171 222.017 -19.7174 232.393 -11.7827 236.893L-8.71381 238.633C-5.27352 240.584 -1.23799 241.208 2.63089 240.388L97.9715 217.955C103.779 216.723 107.154 224.288 102.359 227.787L-9.43921 314.968C-12.9186 317.507 -15.2798 321.354 -16.0053 325.6C-18.0781 337.731 -8.1556 348.736 4.10547 347.674C6.42765 347.473 8.68013 346.778 10.7125 345.637L111.323 277.553C116.489 274.652 121.964 280.841 118.453 285.614L44.545 382.731C42.6541 385.301 41.4758 388.326 41.1295 391.498C39.7083 404.515 50.6744 415.574 63.7197 414.444C68.5408 414.026 73.0403 411.707 76.1541 408.002L202.775 261.678Z" fill="#FFC670"/>
<path d="M203.088 271.075L201.488 48.4796C140.05 57.6088 114.998 105.185 109.307 123.335L40.5766 118.519C35.7168 118.024 30.897 119.776 27.4908 123.278L26.6312 124.162C19.834 131.149 20.2161 142.389 27.4722 148.898C29.7827 150.971 32.6807 152.274 35.7646 152.626L98.8541 166.993C104.631 167.652 105.573 175.654 100.107 177.637L-10.0614 219.154C-12.62 220.082 -14.8356 221.766 -16.4142 223.983C-21.7046 231.414 -19.4049 241.79 -11.4702 246.29L-8.40131 248.03C-4.96102 249.981 -0.925488 250.605 2.94339 249.785L98.284 227.352C104.091 226.12 107.467 233.685 102.671 237.184L-9.12671 324.365C-12.6061 326.904 -14.9673 330.751 -15.6928 334.997C-17.7656 347.128 -7.8431 358.133 4.41797 357.071C6.74015 356.87 8.99263 356.175 11.025 355.034L111.635 286.95C116.802 284.049 122.276 290.238 118.765 295.011L44.8575 392.127C42.9666 394.698 41.7883 397.723 41.442 400.895C40.0208 413.912 50.9869 424.971 64.0322 423.841C68.8533 423.423 73.3528 421.104 76.4666 417.399L203.088 271.075Z" fill="#FFE8C6"/>
</svg>
