<svg width="1280" height="98"  viewBox="0 0 1280 98" fill="none" xmlns="http://www.w3.org/2000/svg">
<path d="M-5341.68 84.8571L-5347.07 79.5388C-5352.14 74.5325 -5355 67.7016 -5355 60.5735V52.3376C-5355 26.7461 -5334.25 6 -5308.66 6H5955.75C5979.64 6 5999 25.363 5999 49.2484V54.3357C5999 62.6519 5995.67 70.6212 5989.75 76.4619L5981.24 84.8571C5973.85 92.1442 5961.98 92.1442 5954.6 84.8571C5947.21 77.5701 5935.34 77.5701 5927.95 84.8571C5920.57 92.1442 5908.7 92.1442 5901.31 84.8571C5893.93 77.5701 5882.06 77.5701 5874.67 84.8571C5867.28 92.1442 5855.41 92.1442 5848.03 84.8571C5840.64 77.5701 5828.77 77.5701 5821.38 84.8571C5814 92.1442 5802.13 92.1442 5794.74 84.8571C5787.36 77.5701 5775.49 77.5701 5768.1 84.8571C5760.71 92.1442 5748.84 92.1442 5741.46 84.8571C5734.07 77.5701 5722.2 77.5701 5714.82 84.8571C5707.43 92.1442 5695.56 92.1442 5688.17 84.8571C5680.79 77.5701 5668.92 77.5701 5661.53 84.8571C5654.15 92.1442 5642.28 92.1442 5634.89 84.8571C5627.5 77.5701 5615.63 77.5701 5608.25 84.8571C5600.86 92.1442 5588.99 92.1442 5581.61 84.8571C5574.22 77.5701 5562.35 77.5701 5554.96 84.8571C5547.58 92.1442 5535.71 92.1442 5528.32 84.8571C5520.94 77.5701 5509.07 77.5701 5501.68 84.8571C5494.29 92.1442 5482.42 92.1442 5475.04 84.8571C5467.65 77.5701 5455.78 77.5701 5448.39 84.8571C5441.01 92.1442 5429.14 92.1442 5421.75 84.8571C5414.37 77.5701 5402.5 77.5701 5395.11 84.8571C5387.72 92.1442 5375.85 92.1442 5368.47 84.8571C5361.08 77.5701 5349.21 77.5701 5341.83 84.8571C5334.44 92.1442 5322.57 92.1442 5315.18 84.8571C5307.8 77.5701 5295.93 77.5701 5288.54 84.8571C5281.16 92.1442 5269.29 92.1442 5261.9 84.8571C5254.51 77.5701 5242.64 77.5701 5235.26 84.8571C5227.87 92.1442 5216 92.1442 5208.62 84.8571C5201.23 77.5701 5189.36 77.5701 5181.97 84.8571C5174.59 92.1442 5162.72 92.1442 5155.33 84.8571C5147.95 77.5701 5136.08 77.5701 5128.69 84.8571C5121.3 92.1442 5109.43 92.1442 5102.05 84.8571C5094.66 77.5701 5082.79 77.5701 5075.4 84.8571C5068.02 92.1442 5056.15 92.1442 5048.76 84.8571C5041.38 77.5701 5029.51 77.5701 5022.12 84.8571C5014.73 92.1442 5002.86 92.1442 4995.48 84.8571C4988.09 77.5701 4976.22 77.5701 4968.84 84.8571C4961.45 92.1442 4949.58 92.1442 4942.19 84.8571C4934.81 77.5701 4922.94 77.5701 4915.55 84.8571C4908.17 92.1442 4896.3 92.1442 4888.91 84.8571C4881.52 77.5701 4869.65 77.5701 4862.27 84.8571C4854.88 92.1442 4843.01 92.1442 4835.62 84.8571C4828.24 77.5701 4816.37 77.5701 4808.98 84.8571C4801.6 92.1442 4789.73 92.1442 4782.34 84.8571C4774.96 77.5701 4763.08 77.5701 4755.7 84.8571C4748.31 92.1442 4736.44 92.1442 4729.06 84.8571C4721.67 77.5701 4709.8 77.5701 4702.41 84.8571C4695.03 92.1442 4683.16 92.1442 4675.77 84.8571C4668.39 77.5701 4656.52 77.5701 4649.13 84.8571C4641.74 92.1442 4629.87 92.1442 4622.49 84.8571C4615.1 77.5701 4603.23 77.5701 4595.85 84.8571C4588.46 92.1442 4576.59 92.1442 4569.2 84.8571C4561.82 77.5701 4549.95 77.5701 4542.56 84.8571C4535.18 92.1442 4523.31 92.1442 4515.92 84.8571C4508.53 77.5701 4496.66 77.5701 4489.28 84.8571C4481.89 92.1442 4470.02 92.1442 4462.63 84.8571C4455.25 77.5701 4443.38 77.5701 4435.99 84.8571C4428.61 92.1442 4416.74 92.1442 4409.35 84.8571C4401.96 77.5701 4390.09 77.5701 4382.71 84.8571C4375.32 92.1442 4363.45 92.1442 4356.07 84.8571C4348.68 77.5701 4336.81 77.5701 4329.42 84.8571C4322.04 92.1442 4310.17 92.1442 4302.78 84.8571C4295.4 77.5701 4283.53 77.5701 4276.14 84.8571C4268.75 92.1442 4256.88 92.1442 4249.5 84.8571C4242.11 77.5701 4230.24 77.5701 4222.86 84.8571C4215.47 92.1442 4203.6 92.1442 4196.21 84.8571C4188.83 77.5701 4176.96 77.5701 4169.57 84.8571C4162.19 92.1442 4150.32 92.1442 4142.93 84.8571C4135.54 77.5701 4123.67 77.5701 4116.29 84.8571C4108.9 92.1442 4097.03 92.1442 4089.64 84.8571C4082.26 77.5701 4070.39 77.5701 4063 84.8571C4055.62 92.1442 4043.75 92.1442 4036.36 84.8571C4028.97 77.5701 4017.1 77.5701 4009.72 84.8571C4002.33 92.1442 3990.46 92.1442 3983.08 84.8571C3975.69 77.5701 3963.82 77.5701 3956.43 84.8571C3949.05 92.1442 3937.18 92.1442 3929.79 84.8571C3922.41 77.5701 3910.54 77.5701 3903.15 84.8571C3895.76 92.1442 3883.89 92.1442 3876.51 84.8571C3869.12 77.5701 3857.25 77.5701 3849.87 84.8571C3842.48 92.1442 3830.61 92.1442 3823.22 84.8571C3815.84 77.5701 3803.97 77.5701 3796.58 84.8571C3789.2 92.1442 3777.33 92.1442 3769.94 84.8571C3762.55 77.5701 3750.68 77.5701 3743.3 84.8571C3735.91 92.1442 3724.04 92.1442 3716.65 84.8571C3709.27 77.5701 3697.4 77.5701 3690.01 84.8571C3682.63 92.1442 3670.76 92.1442 3663.37 84.8571C3655.98 77.5701 3644.11 77.5701 3636.73 84.8571C3629.34 92.1442 3617.47 92.1442 3610.09 84.8571C3602.7 77.5701 3590.83 77.5701 3583.44 84.8571C3576.06 92.1442 3564.19 92.1442 3556.8 84.8571C3549.42 77.5701 3537.55 77.5701 3530.16 84.8571C3522.77 92.1442 3510.9 92.1442 3503.52 84.8571C3496.13 77.5701 3484.26 77.5701 3476.88 84.8571C3469.49 92.1442 3457.62 92.1442 3450.23 84.8571C3442.85 77.5701 3430.98 77.5701 3423.59 84.8571C3416.21 92.1442 3404.33 92.1442 3396.95 84.8571C3389.56 77.5701 3377.69 77.5701 3370.31 84.8571C3362.92 92.1442 3351.05 92.1442 3343.66 84.8571C3336.28 77.5701 3324.41 77.5701 3317.02 84.8571C3309.64 92.1442 3297.77 92.1442 3290.38 84.8571C3282.99 77.5701 3271.12 77.5701 3263.74 84.8571C3256.35 92.1442 3244.48 92.1442 3237.1 84.8571C3229.71 77.5701 3217.84 77.5701 3210.45 84.8571C3203.07 92.1442 3191.2 92.1442 3183.81 84.8571C3176.43 77.5701 3164.56 77.5701 3157.17 84.8571C3149.78 92.1442 3137.91 92.1442 3130.53 84.8571C3123.14 77.5701 3111.27 77.5701 3103.88 84.8571C3096.5 92.1442 3084.63 92.1442 3077.24 84.8571C3069.86 77.5701 3057.99 77.5701 3050.6 84.8571C3043.21 92.1442 3031.34 92.1442 3023.96 84.8571C3016.57 77.5701 3004.7 77.5701 2997.32 84.8571C2989.93 92.1442 2978.06 92.1442 2970.67 84.8571C2963.29 77.5701 2951.42 77.5701 2944.03 84.8571C2936.65 92.1442 2924.78 92.1442 2917.39 84.8571C2910 77.5701 2898.13 77.5701 2890.75 84.8571C2883.36 92.1442 2871.49 92.1442 2864.11 84.8571C2856.72 77.5701 2844.85 77.5701 2837.46 84.8571C2830.08 92.1442 2818.21 92.1442 2810.82 84.8571C2803.44 77.5701 2791.56 77.5701 2784.18 84.8571C2776.79 92.1442 2764.92 92.1442 2757.54 84.8571C2750.15 77.5701 2738.28 77.5701 2730.9 84.8571C2723.51 92.1442 2711.64 92.1442 2704.25 84.8571C2696.87 77.5701 2685 77.5701 2677.61 84.8571C2670.22 92.1442 2658.35 92.1442 2650.97 84.8571C2643.58 77.5701 2631.71 77.5701 2624.33 84.8571C2616.94 92.1442 2605.07 92.1442 2597.68 84.8571C2590.3 77.5701 2578.43 77.5701 2571.04 84.8571C2563.66 92.1442 2551.79 92.1442 2544.4 84.8571C2537.01 77.5701 2525.14 77.5701 2517.76 84.8571C2510.37 92.1442 2498.5 92.1442 2491.12 84.8571C2483.73 77.5701 2471.86 77.5701 2464.47 84.8571C2457.09 92.1442 2445.22 92.1442 2437.83 84.8571C2430.45 77.5701 2418.57 77.5701 2411.19 84.8571C2403.8 92.1442 2391.93 92.1442 2384.55 84.8571C2377.16 77.5701 2365.29 77.5701 2357.9 84.8571C2350.52 92.1442 2338.65 92.1442 2331.26 84.8571C2323.88 77.5701 2312.01 77.5701 2304.62 84.8571C2297.23 92.1442 2285.36 92.1442 2277.98 84.8571C2270.59 77.5701 2258.72 77.5701 2251.34 84.8571C2243.95 92.1442 2232.08 92.1442 2224.69 84.8571C2217.31 77.5701 2205.44 77.5701 2198.05 84.8571C2190.67 92.1442 2178.8 92.1442 2171.41 84.8571C2164.02 77.5701 2152.15 77.5701 2144.77 84.8571C2137.38 92.1442 2125.51 92.1442 2118.12 84.8571C2110.74 77.5701 2098.87 77.5701 2091.48 84.8571C2084.1 92.1442 2072.23 92.1442 2064.84 84.8571C2057.46 77.5701 2045.58 77.5701 2038.2 84.8571C2030.81 92.1442 2018.94 92.1442 2011.56 84.8571C2004.17 77.5701 1992.3 77.5701 1984.91 84.8571C1977.53 92.1442 1965.66 92.1442 1958.27 84.8571C1950.89 77.5701 1939.02 77.5701 1931.63 84.8571C1924.24 92.1442 1912.37 92.1442 1904.99 84.8571C1897.6 77.5701 1885.73 77.5701 1878.35 84.8571C1870.96 92.1442 1859.09 92.1442 1851.7 84.8571C1844.32 77.5701 1832.45 77.5701 1825.06 84.8571C1817.68 92.1442 1805.81 92.1442 1798.42 84.8571C1791.03 77.5701 1779.16 77.5701 1771.78 84.8571C1764.39 92.1442 1752.52 92.1442 1745.13 84.8571C1737.75 77.5701 1725.88 77.5701 1718.49 84.8571C1711.11 92.1442 1699.24 92.1442 1691.85 84.8571C1684.46 77.5701 1672.59 77.5701 1665.21 84.8571C1657.82 92.1442 1645.95 92.1442 1638.57 84.8571C1631.18 77.5701 1619.31 77.5701 1611.92 84.8571C1604.54 92.1442 1592.67 92.1442 1585.28 84.8571C1577.9 77.5701 1566.03 77.5701 1558.64 84.8571C1551.25 92.1442 1539.38 92.1442 1532 84.8571C1524.61 77.5701 1512.74 77.5701 1505.36 84.8571C1497.97 92.1442 1486.1 92.1442 1478.71 84.8571C1471.33 77.5701 1459.46 77.5701 1452.07 84.8571C1444.69 92.1442 1432.81 92.1442 1425.43 84.8571C1418.04 77.5701 1406.17 77.5701 1398.79 84.8571C1391.4 92.1442 1379.53 92.1442 1372.15 84.8571C1364.76 77.5701 1352.89 77.5701 1345.5 84.8571C1338.12 92.1442 1326.25 92.1442 1318.86 84.8571C1311.47 77.5701 1299.6 77.5701 1292.22 84.8571C1284.83 92.1442 1272.96 92.1442 1265.58 84.8571C1258.19 77.5701 1246.32 77.5701 1238.93 84.8571C1231.55 92.1442 1219.68 92.1442 1212.29 84.8571C1204.91 77.5701 1193.04 77.5701 1185.65 84.8571C1178.26 92.1442 1166.39 92.1442 1159.01 84.8571C1151.62 77.5701 1139.75 77.5701 1132.37 84.8571C1124.98 92.1442 1113.11 92.1442 1105.72 84.8571C1098.34 77.5701 1086.47 77.5701 1079.08 84.8571C1071.7 92.1442 1059.82 92.1442 1052.44 84.8571C1045.05 77.5701 1033.18 77.5701 1025.8 84.8571C1018.41 92.1442 1006.54 92.1442 999.155 84.8571C991.769 77.5701 979.898 77.5701 972.512 84.8571C965.126 92.1442 953.256 92.1442 945.87 84.8571C938.484 77.5701 926.614 77.5701 919.228 84.8571C911.842 92.1442 899.972 92.1442 892.586 84.8571C885.2 77.5701 873.33 77.5701 865.944 84.8571C858.558 92.1442 846.688 92.1442 839.302 84.8571C831.916 77.5701 820.045 77.5701 812.66 84.8571C805.273 92.1442 793.403 92.1442 786.017 84.8571C778.631 77.5701 766.761 77.5701 759.375 84.8571C751.989 92.1442 740.119 92.1442 732.733 84.8571C725.347 77.5701 713.477 77.5701 706.091 84.8571C698.705 92.1442 686.834 92.1442 679.449 84.8571C672.063 77.5701 660.192 77.5701 652.807 84.8571C645.421 92.1442 633.55 92.1442 626.165 84.8571C618.778 77.5701 606.908 77.5701 599.522 84.8571C592.136 92.1442 580.266 92.1442 572.88 84.8571C565.494 77.5701 553.624 77.5701 546.238 84.8571C538.852 92.1442 526.981 92.1442 519.596 84.8571C512.21 77.5701 500.339 77.5701 492.954 84.8571C485.568 92.1442 473.697 92.1442 466.312 84.8571C458.926 77.5701 447.055 77.5701 439.669 84.8571C432.283 92.1442 420.413 92.1442 413.027 84.8571C405.641 77.5701 393.771 77.5701 386.385 84.8571C378.999 92.1442 367.129 92.1442 359.743 84.8571C352.357 77.5701 340.486 77.5701 333.101 84.8571C325.715 92.1442 313.844 92.1442 306.458 84.8571C299.073 77.5701 287.202 77.5701 279.816 84.8571C272.431 92.1442 260.56 92.1442 253.174 84.8571C245.788 77.5701 233.918 77.5701 226.532 84.8571C219.146 92.1442 207.276 92.1442 199.89 84.8571C192.504 77.5701 180.634 77.5701 173.248 84.8571C165.862 92.1442 153.991 92.1442 146.605 84.8571C139.22 77.5701 127.349 77.5701 119.963 84.8571C112.578 92.1442 100.707 92.1442 93.3213 84.8571C85.9355 77.5701 74.0649 77.5701 66.6792 84.8571C59.293 92.1442 47.4229 92.1442 40.0371 84.8571C32.6509 77.5701 20.7808 77.5701 13.3945 84.8571C6.00879 92.1442 -5.86133 92.1442 -13.2476 84.8571C-20.6333 77.5701 -32.5039 77.5701 -39.8896 84.8571C-47.2754 92.1442 -59.146 92.1442 -66.5317 84.8571C-73.9175 77.5701 -85.7881 77.5701 -93.1738 84.8571C-100.56 92.1442 -112.43 92.1442 -119.816 84.8571C-127.202 77.5701 -139.072 77.5701 -146.458 84.8571C-153.844 92.1442 -165.714 92.1442 -173.101 84.8571C-180.486 77.5701 -192.356 77.5701 -199.743 84.8571C-207.128 92.1442 -218.999 92.1442 -226.385 84.8571C-233.771 77.5701 -245.641 77.5701 -253.027 84.8571C-260.413 92.1442 -272.283 92.1442 -279.669 84.8571C-287.055 77.5701 -298.925 77.5701 -306.311 84.8571C-313.697 92.1442 -325.567 92.1442 -332.953 84.8571C-340.339 77.5701 -352.209 77.5701 -359.595 84.8571C-366.981 92.1442 -378.852 92.1442 -386.238 84.8571C-393.624 77.5701 -405.494 77.5701 -412.88 84.8571C-420.266 92.1442 -432.136 92.1442 -439.522 84.8571C-446.908 77.5701 -458.778 77.5701 -466.164 84.8571C-473.55 92.1442 -485.42 92.1442 -492.806 84.8571C-500.192 77.5701 -512.062 77.5701 -519.448 84.8571C-526.834 92.1442 -538.705 92.1442 -546.09 84.8571C-553.477 77.5701 -565.347 77.5701 -572.733 84.8571C-580.119 92.1442 -591.989 92.1442 -599.375 84.8571C-606.761 77.5701 -618.631 77.5701 -626.017 84.8571C-633.403 92.1442 -645.273 92.1442 -652.659 84.8571C-660.045 77.5701 -671.916 77.5701 -679.301 84.8571C-686.687 92.1442 -698.558 92.1442 -705.943 84.8571C-713.33 77.5701 -725.2 77.5701 -732.585 84.8571C-739.972 92.1442 -751.842 92.1442 -759.228 84.8571C-766.614 77.5701 -778.484 77.5701 -785.87 84.8571C-793.256 92.1442 -805.126 92.1442 -812.512 84.8571C-819.898 77.5701 -831.769 77.5701 -839.154 84.8571C-846.54 92.1442 -858.411 92.1442 -865.796 84.8571C-873.182 77.5701 -885.053 77.5701 -892.438 84.8571C-899.825 92.1442 -911.695 92.1442 -919.081 84.8571C-926.467 77.5701 -938.337 77.5701 -945.723 84.8571C-953.109 92.1442 -964.979 92.1442 -972.365 84.8571C-979.751 77.5701 -991.622 77.5701 -999.007 84.8571C-1006.39 92.1442 -1018.26 92.1442 -1025.65 84.8571C-1033.04 77.5701 -1044.91 77.5701 -1052.29 84.8571C-1059.68 92.1442 -1071.55 92.1442 -1078.93 84.8571C-1086.32 77.5701 -1098.19 77.5701 -1105.58 84.8571C-1112.96 92.1442 -1124.83 92.1442 -1132.22 84.8571C-1139.6 77.5701 -1151.47 77.5701 -1158.86 84.8571C-1166.25 92.1442 -1178.12 92.1442 -1185.5 84.8571C-1192.89 77.5701 -1204.76 77.5701 -1212.14 84.8571C-1219.53 92.1442 -1231.4 92.1442 -1238.79 84.8571C-1246.17 77.5701 -1258.04 77.5701 -1265.43 84.8571C-1272.81 92.1442 -1284.69 92.1442 -1292.07 84.8571C-1299.46 77.5701 -1311.33 77.5701 -1318.71 84.8571C-1326.1 92.1442 -1337.97 92.1442 -1345.36 84.8571C-1352.74 77.5701 -1364.61 77.5701 -1372 84.8571C-1379.38 92.1442 -1391.25 92.1442 -1398.64 84.8571C-1406.03 77.5701 -1417.9 77.5701 -1425.28 84.8571C-1432.67 92.1442 -1444.54 92.1442 -1451.92 84.8571C-1459.31 77.5701 -1471.18 77.5701 -1478.57 84.8571C-1485.95 92.1442 -1497.82 92.1442 -1505.21 84.8571C-1512.59 77.5701 -1524.46 77.5701 -1531.85 84.8571C-1539.24 92.1442 -1551.11 92.1442 -1558.49 84.8571C-1565.88 77.5701 -1577.75 77.5701 -1585.13 84.8571C-1592.52 92.1442 -1604.39 92.1442 -1611.78 84.8571C-1619.16 77.5701 -1631.03 77.5701 -1638.42 84.8571C-1645.8 92.1442 -1657.68 92.1442 -1665.06 84.8571C-1672.45 77.5701 -1684.32 77.5701 -1691.7 84.8571C-1699.09 92.1442 -1710.96 92.1442 -1718.35 84.8571C-1725.73 77.5701 -1737.6 77.5701 -1744.99 84.8571C-1752.37 92.1442 -1764.24 92.1442 -1771.63 84.8571C-1779.02 77.5701 -1790.89 77.5701 -1798.27 84.8571C-1805.66 92.1442 -1817.53 92.1442 -1824.91 84.8571C-1832.3 77.5701 -1844.17 77.5701 -1851.56 84.8571C-1858.94 92.1442 -1870.81 92.1442 -1878.2 84.8571C-1885.58 77.5701 -1897.45 77.5701 -1904.84 84.8571C-1912.23 92.1442 -1924.1 92.1442 -1931.48 84.8571C-1938.87 77.5701 -1950.74 77.5701 -1958.12 84.8571C-1965.51 92.1442 -1977.38 92.1442 -1984.77 84.8571C-1992.15 77.5701 -2004.02 77.5701 -2011.41 84.8571C-2018.8 92.1442 -2030.67 92.1442 -2038.05 84.8571C-2045.44 77.5701 -2057.31 77.5701 -2064.69 84.8571C-2072.08 92.1442 -2083.95 92.1442 -2091.34 84.8571C-2098.72 77.5701 -2110.59 77.5701 -2117.98 84.8571C-2125.36 92.1442 -2137.23 92.1442 -2144.62 84.8571C-2152.01 77.5701 -2163.88 77.5701 -2171.26 84.8571C-2178.65 92.1442 -2190.52 92.1442 -2197.9 84.8571C-2205.29 77.5701 -2217.16 77.5701 -2224.55 84.8571C-2231.93 92.1442 -2243.8 92.1442 -2251.19 84.8571C-2258.57 77.5701 -2270.44 77.5701 -2277.83 84.8571C-2285.22 92.1442 -2297.09 92.1442 -2304.47 84.8571C-2311.86 77.5701 -2323.73 77.5701 -2331.12 84.8571C-2338.5 92.1442 -2350.37 92.1442 -2357.76 84.8571C-2365.14 77.5701 -2377.01 77.5701 -2384.4 84.8571C-2391.79 92.1442 -2403.66 92.1442 -2411.04 84.8571C-2418.43 77.5701 -2430.3 77.5701 -2437.68 84.8571C-2445.07 92.1442 -2456.94 92.1442 -2464.33 84.8571C-2471.71 77.5701 -2483.58 77.5701 -2490.97 84.8571C-2498.35 92.1442 -2510.22 92.1442 -2517.61 84.8571C-2525 77.5701 -2536.87 77.5701 -2544.25 84.8571C-2551.64 92.1442 -2563.51 92.1442 -2570.89 84.8571C-2578.28 77.5701 -2590.15 77.5701 -2597.54 84.8571C-2604.92 92.1442 -2616.79 92.1442 -2624.18 84.8571C-2631.56 77.5701 -2643.44 77.5701 -2650.82 84.8571C-2658.21 92.1442 -2670.08 92.1442 -2677.46 84.8571C-2684.85 77.5701 -2696.72 77.5701 -2704.11 84.8571C-2711.49 92.1442 -2723.36 92.1442 -2730.75 84.8571C-2738.13 77.5701 -2750 77.5701 -2757.39 84.8571C-2764.78 92.1442 -2776.65 92.1442 -2784.03 84.8571C-2791.42 77.5701 -2803.29 77.5701 -2810.67 84.8571C-2818.06 92.1442 -2829.93 92.1442 -2837.32 84.8571C-2844.7 77.5701 -2856.57 77.5701 -2863.96 84.8571C-2871.34 92.1442 -2883.21 92.1442 -2890.6 84.8571C-2897.99 77.5701 -2909.86 77.5701 -2917.24 84.8571C-2924.63 92.1442 -2936.5 92.1442 -2943.88 84.8571C-2951.27 77.5701 -2963.14 77.5701 -2970.53 84.8571C-2977.91 92.1442 -2989.78 92.1442 -2997.17 84.8571C-3004.55 77.5701 -3016.43 77.5701 -3023.81 84.8571C-3031.2 92.1442 -3043.07 92.1442 -3050.45 84.8571C-3057.84 77.5701 -3069.71 77.5701 -3077.1 84.8571C-3084.48 92.1442 -3096.35 92.1442 -3103.74 84.8571C-3111.12 77.5701 -3122.99 77.5701 -3130.38 84.8571C-3137.77 92.1442 -3149.64 92.1442 -3157.02 84.8571C-3164.41 77.5701 -3176.28 77.5701 -3183.66 84.8571C-3191.05 92.1442 -3202.92 92.1442 -3210.31 84.8571C-3217.69 77.5701 -3229.56 77.5701 -3236.95 84.8571C-3244.33 92.1442 -3256.2 92.1442 -3263.59 84.8571C-3270.98 77.5701 -3282.85 77.5701 -3290.23 84.8571C-3297.62 92.1442 -3309.49 92.1442 -3316.88 84.8571C-3324.26 77.5701 -3336.13 77.5701 -3343.52 84.8571C-3350.9 92.1442 -3362.77 92.1442 -3370.16 84.8571C-3377.55 77.5701 -3389.42 77.5701 -3396.8 84.8571C-3404.19 92.1442 -3416.06 92.1442 -3423.44 84.8571C-3430.83 77.5701 -3442.7 77.5701 -3450.09 84.8571C-3457.47 92.1442 -3469.34 92.1442 -3476.73 84.8571C-3484.11 77.5701 -3495.98 77.5701 -3503.37 84.8571C-3510.76 92.1442 -3522.63 92.1442 -3530.01 84.8571C-3537.4 77.5701 -3549.27 77.5701 -3556.65 84.8571C-3564.04 92.1442 -3575.91 92.1442 -3583.3 84.8571C-3590.68 77.5701 -3602.55 77.5701 -3609.94 84.8571C-3617.32 92.1442 -3629.19 92.1442 -3636.58 84.8571C-3643.97 77.5701 -3655.84 77.5701 -3663.22 84.8571C-3670.61 92.1442 -3682.48 92.1442 -3689.87 84.8571C-3697.25 77.5701 -3709.12 77.5701 -3716.51 84.8571C-3723.89 92.1442 -3735.76 92.1442 -3743.15 84.8571C-3750.54 77.5701 -3762.41 77.5701 -3769.79 84.8571C-3777.18 92.1442 -3789.05 92.1442 -3796.43 84.8571C-3803.82 77.5701 -3815.69 77.5701 -3823.08 84.8571C-3830.46 92.1442 -3842.33 92.1442 -3849.72 84.8571C-3857.1 77.5701 -3868.97 77.5701 -3876.36 84.8571C-3883.75 92.1442 -3895.62 92.1442 -3903 84.8571C-3910.39 77.5701 -3922.26 77.5701 -3929.64 84.8571C-3937.03 92.1442 -3948.9 92.1442 -3956.29 84.8571C-3963.67 77.5701 -3975.54 77.5701 -3982.93 84.8571C-3990.31 92.1442 -4002.19 92.1442 -4009.57 84.8571C-4016.96 77.5701 -4028.83 77.5701 -4036.21 84.8571C-4043.6 92.1442 -4055.47 92.1442 -4062.86 84.8571C-4070.24 77.5701 -4082.11 77.5701 -4089.5 84.8571C-4096.88 92.1442 -4108.75 92.1442 -4116.14 84.8571C-4123.53 77.5701 -4135.4 77.5701 -4142.78 84.8571C-4150.17 92.1442 -4162.04 92.1442 -4169.42 84.8571C-4176.81 77.5701 -4188.68 77.5701 -4196.07 84.8571C-4203.45 92.1442 -4215.32 92.1442 -4222.71 84.8571C-4230.09 77.5701 -4241.96 77.5701 -4249.35 84.8571C-4256.74 92.1442 -4268.61 92.1442 -4275.99 84.8571C-4283.38 77.5701 -4295.25 77.5701 -4302.63 84.8571C-4310.02 92.1442 -4321.89 92.1442 -4329.28 84.8571C-4336.66 77.5701 -4348.53 77.5701 -4355.92 84.8571C-4363.3 92.1442 -4375.18 92.1442 -4382.56 84.8571C-4389.95 77.5701 -4401.82 77.5701 -4409.2 84.8571C-4416.59 92.1442 -4428.46 92.1442 -4435.85 84.8571C-4443.23 77.5701 -4455.1 77.5701 -4462.49 84.8571C-4469.87 92.1442 -4481.74 92.1442 -4489.13 84.8571C-4496.52 77.5701 -4508.39 77.5701 -4515.77 84.8571C-4523.16 92.1442 -4535.03 92.1442 -4542.41 84.8571C-4549.8 77.5701 -4561.67 77.5701 -4569.06 84.8571C-4576.44 92.1442 -4588.31 92.1442 -4595.7 84.8571C-4603.08 77.5701 -4614.95 77.5701 -4622.34 84.8571C-4629.73 92.1442 -4641.6 92.1442 -4648.98 84.8571C-4656.37 77.5701 -4668.24 77.5701 -4675.62 84.8571C-4683.01 92.1442 -4694.88 92.1442 -4702.27 84.8571C-4709.65 77.5701 -4721.52 77.5701 -4728.91 84.8571C-4736.3 92.1442 -4748.17 92.1442 -4755.55 84.8571C-4762.94 77.5701 -4774.81 77.5701 -4782.19 84.8571C-4789.58 92.1442 -4801.45 92.1442 -4808.84 84.8571C-4816.22 77.5701 -4828.09 77.5701 -4835.48 84.8571C-4842.86 92.1442 -4854.73 92.1442 -4862.12 84.8571C-4869.51 77.5701 -4881.38 77.5701 -4888.76 84.8571C-4896.15 92.1442 -4908.02 92.1442 -4915.4 84.8571C-4922.79 77.5701 -4934.66 77.5701 -4942.05 84.8571C-4949.43 92.1442 -4961.3 92.1442 -4968.69 84.8571C-4976.07 77.5701 -4987.95 77.5701 -4995.33 84.8571C-5002.72 92.1442 -5014.59 92.1442 -5021.97 84.8571C-5029.36 77.5701 -5041.23 77.5701 -5048.62 84.8571C-5056 92.1442 -5067.87 92.1442 -5075.26 84.8571C-5082.64 77.5701 -5094.51 77.5701 -5101.9 84.8571C-5109.29 92.1442 -5121.16 92.1442 -5128.54 84.8571C-5135.93 77.5701 -5147.8 77.5701 -5155.18 84.8571C-5162.57 92.1442 -5174.44 92.1442 -5181.83 84.8571C-5189.21 77.5701 -5201.08 77.5701 -5208.47 84.8571C-5215.85 92.1442 -5227.72 92.1442 -5235.11 84.8571C-5242.5 77.5701 -5254.37 77.5701 -5261.75 84.8571C-5269.14 92.1442 -5281.01 92.1442 -5288.39 84.8571C-5295.78 77.5701 -5307.65 77.5701 -5315.04 84.8571C-5322.42 92.1442 -5334.29 92.1442 -5341.68 84.8571Z" fill="#927AFF"/>
<path d="M-5341.68 78.8571L-5347.07 73.5388C-5352.14 68.5325 -5355 61.7016 -5355 54.5735V46.3376C-5355 20.7461 -5334.25 0 -5308.66 0H5955.75C5979.64 0 5999 19.363 5999 43.2484V48.3357C5999 56.6519 5995.67 64.6212 5989.75 70.4619L5981.24 78.8571C5973.85 86.1442 5961.98 86.1442 5954.6 78.8571C5947.21 71.5701 5935.34 71.5701 5927.95 78.8571C5920.57 86.1442 5908.7 86.1442 5901.31 78.8571C5893.93 71.5701 5882.06 71.5701 5874.67 78.8571C5867.28 86.1442 5855.41 86.1442 5848.03 78.8571C5840.64 71.5701 5828.77 71.5701 5821.38 78.8571C5814 86.1442 5802.13 86.1442 5794.74 78.8571C5787.36 71.5701 5775.49 71.5701 5768.1 78.8571C5760.71 86.1442 5748.84 86.1442 5741.46 78.8571C5734.07 71.5701 5722.2 71.5701 5714.82 78.8571C5707.43 86.1442 5695.56 86.1442 5688.17 78.8571C5680.79 71.5701 5668.92 71.5701 5661.53 78.8571C5654.15 86.1442 5642.28 86.1442 5634.89 78.8571C5627.5 71.5701 5615.63 71.5701 5608.25 78.8571C5600.86 86.1442 5588.99 86.1442 5581.61 78.8571C5574.22 71.5701 5562.35 71.5701 5554.96 78.8571C5547.58 86.1442 5535.71 86.1442 5528.32 78.8571C5520.94 71.5701 5509.07 71.5701 5501.68 78.8571C5494.29 86.1442 5482.42 86.1442 5475.04 78.8571C5467.65 71.5701 5455.78 71.5701 5448.39 78.8571C5441.01 86.1442 5429.14 86.1442 5421.75 78.8571C5414.37 71.5701 5402.5 71.5701 5395.11 78.8571C5387.72 86.1442 5375.85 86.1442 5368.47 78.8571C5361.08 71.5701 5349.21 71.5701 5341.83 78.8571C5334.44 86.1442 5322.57 86.1442 5315.18 78.8571C5307.8 71.5701 5295.93 71.5701 5288.54 78.8571C5281.16 86.1442 5269.29 86.1442 5261.9 78.8571C5254.51 71.5701 5242.64 71.5701 5235.26 78.8571C5227.87 86.1442 5216 86.1442 5208.62 78.8571C5201.23 71.5701 5189.36 71.5701 5181.97 78.8571C5174.59 86.1442 5162.72 86.1442 5155.33 78.8571C5147.95 71.5701 5136.08 71.5701 5128.69 78.8571C5121.3 86.1442 5109.43 86.1442 5102.05 78.8571C5094.66 71.5701 5082.79 71.5701 5075.4 78.8571C5068.02 86.1442 5056.15 86.1442 5048.76 78.8571C5041.38 71.5701 5029.51 71.5701 5022.12 78.8571C5014.73 86.1442 5002.86 86.1442 4995.48 78.8571C4988.09 71.5701 4976.22 71.5701 4968.84 78.8571C4961.45 86.1442 4949.58 86.1442 4942.19 78.8571C4934.81 71.5701 4922.94 71.5701 4915.55 78.8571C4908.17 86.1442 4896.3 86.1442 4888.91 78.8571C4881.52 71.5701 4869.65 71.5701 4862.27 78.8571C4854.88 86.1442 4843.01 86.1442 4835.62 78.8571C4828.24 71.5701 4816.37 71.5701 4808.98 78.8571C4801.6 86.1442 4789.73 86.1442 4782.34 78.8571C4774.96 71.5701 4763.08 71.5701 4755.7 78.8571C4748.31 86.1442 4736.44 86.1442 4729.06 78.8571C4721.67 71.5701 4709.8 71.5701 4702.41 78.8571C4695.03 86.1442 4683.16 86.1442 4675.77 78.8571C4668.39 71.5701 4656.52 71.5701 4649.13 78.8571C4641.74 86.1442 4629.87 86.1442 4622.49 78.8571C4615.1 71.5701 4603.23 71.5701 4595.85 78.8571C4588.46 86.1442 4576.59 86.1442 4569.2 78.8571C4561.82 71.5701 4549.95 71.5701 4542.56 78.8571C4535.18 86.1442 4523.31 86.1442 4515.92 78.8571C4508.53 71.5701 4496.66 71.5701 4489.28 78.8571C4481.89 86.1442 4470.02 86.1442 4462.63 78.8571C4455.25 71.5701 4443.38 71.5701 4435.99 78.8571C4428.61 86.1442 4416.74 86.1442 4409.35 78.8571C4401.96 71.5701 4390.09 71.5701 4382.71 78.8571C4375.32 86.1442 4363.45 86.1442 4356.07 78.8571C4348.68 71.5701 4336.81 71.5701 4329.42 78.8571C4322.04 86.1442 4310.17 86.1442 4302.78 78.8571C4295.4 71.5701 4283.53 71.5701 4276.14 78.8571C4268.75 86.1442 4256.88 86.1442 4249.5 78.8571C4242.11 71.5701 4230.24 71.5701 4222.86 78.8571C4215.47 86.1442 4203.6 86.1442 4196.21 78.8571C4188.83 71.5701 4176.96 71.5701 4169.57 78.8571C4162.19 86.1442 4150.32 86.1442 4142.93 78.8571C4135.54 71.5701 4123.67 71.5701 4116.29 78.8571C4108.9 86.1442 4097.03 86.1442 4089.64 78.8571C4082.26 71.5701 4070.39 71.5701 4063 78.8571C4055.62 86.1442 4043.75 86.1442 4036.36 78.8571C4028.97 71.5701 4017.1 71.5701 4009.72 78.8571C4002.33 86.1442 3990.46 86.1442 3983.08 78.8571C3975.69 71.5701 3963.82 71.5701 3956.43 78.8571C3949.05 86.1442 3937.18 86.1442 3929.79 78.8571C3922.41 71.5701 3910.54 71.5701 3903.15 78.8571C3895.76 86.1442 3883.89 86.1442 3876.51 78.8571C3869.12 71.5701 3857.25 71.5701 3849.87 78.8571C3842.48 86.1442 3830.61 86.1442 3823.22 78.8571C3815.84 71.5701 3803.97 71.5701 3796.58 78.8571C3789.2 86.1442 3777.33 86.1442 3769.94 78.8571C3762.55 71.5701 3750.68 71.5701 3743.3 78.8571C3735.91 86.1442 3724.04 86.1442 3716.65 78.8571C3709.27 71.5701 3697.4 71.5701 3690.01 78.8571C3682.63 86.1442 3670.76 86.1442 3663.37 78.8571C3655.98 71.5701 3644.11 71.5701 3636.73 78.8571C3629.34 86.1442 3617.47 86.1442 3610.09 78.8571C3602.7 71.5701 3590.83 71.5701 3583.44 78.8571C3576.06 86.1442 3564.19 86.1442 3556.8 78.8571C3549.42 71.5701 3537.55 71.5701 3530.16 78.8571C3522.77 86.1442 3510.9 86.1442 3503.52 78.8571C3496.13 71.5701 3484.26 71.5701 3476.88 78.8571C3469.49 86.1442 3457.62 86.1442 3450.23 78.8571C3442.85 71.5701 3430.98 71.5701 3423.59 78.8571C3416.21 86.1442 3404.33 86.1442 3396.95 78.8571C3389.56 71.5701 3377.69 71.5701 3370.31 78.8571C3362.92 86.1442 3351.05 86.1442 3343.66 78.8571C3336.28 71.5701 3324.41 71.5701 3317.02 78.8571C3309.64 86.1442 3297.77 86.1442 3290.38 78.8571C3282.99 71.5701 3271.12 71.5701 3263.74 78.8571C3256.35 86.1442 3244.48 86.1442 3237.1 78.8571C3229.71 71.5701 3217.84 71.5701 3210.45 78.8571C3203.07 86.1442 3191.2 86.1442 3183.81 78.8571C3176.43 71.5701 3164.56 71.5701 3157.17 78.8571C3149.78 86.1442 3137.91 86.1442 3130.53 78.8571C3123.14 71.5701 3111.27 71.5701 3103.88 78.8571C3096.5 86.1442 3084.63 86.1442 3077.24 78.8571C3069.86 71.5701 3057.99 71.5701 3050.6 78.8571C3043.21 86.1442 3031.34 86.1442 3023.96 78.8571C3016.57 71.5701 3004.7 71.5701 2997.32 78.8571C2989.93 86.1442 2978.06 86.1442 2970.67 78.8571C2963.29 71.5701 2951.42 71.5701 2944.03 78.8571C2936.65 86.1442 2924.78 86.1442 2917.39 78.8571C2910 71.5701 2898.13 71.5701 2890.75 78.8571C2883.36 86.1442 2871.49 86.1442 2864.11 78.8571C2856.72 71.5701 2844.85 71.5701 2837.46 78.8571C2830.08 86.1442 2818.21 86.1442 2810.82 78.8571C2803.44 71.5701 2791.56 71.5701 2784.18 78.8571C2776.79 86.1442 2764.92 86.1442 2757.54 78.8571C2750.15 71.5701 2738.28 71.5701 2730.9 78.8571C2723.51 86.1442 2711.64 86.1442 2704.25 78.8571C2696.87 71.5701 2685 71.5701 2677.61 78.8571C2670.22 86.1442 2658.35 86.1442 2650.97 78.8571C2643.58 71.5701 2631.71 71.5701 2624.33 78.8571C2616.94 86.1442 2605.07 86.1442 2597.68 78.8571C2590.3 71.5701 2578.43 71.5701 2571.04 78.8571C2563.66 86.1442 2551.79 86.1442 2544.4 78.8571C2537.01 71.5701 2525.14 71.5701 2517.76 78.8571C2510.37 86.1442 2498.5 86.1442 2491.12 78.8571C2483.73 71.5701 2471.86 71.5701 2464.47 78.8571C2457.09 86.1442 2445.22 86.1442 2437.83 78.8571C2430.45 71.5701 2418.57 71.5701 2411.19 78.8571C2403.8 86.1442 2391.93 86.1442 2384.55 78.8571C2377.16 71.5701 2365.29 71.5701 2357.9 78.8571C2350.52 86.1442 2338.65 86.1442 2331.26 78.8571C2323.88 71.5701 2312.01 71.5701 2304.62 78.8571C2297.23 86.1442 2285.36 86.1442 2277.98 78.8571C2270.59 71.5701 2258.72 71.5701 2251.34 78.8571C2243.95 86.1442 2232.08 86.1442 2224.69 78.8571C2217.31 71.5701 2205.44 71.5701 2198.05 78.8571C2190.67 86.1442 2178.8 86.1442 2171.41 78.8571C2164.02 71.5701 2152.15 71.5701 2144.77 78.8571C2137.38 86.1442 2125.51 86.1442 2118.12 78.8571C2110.74 71.5701 2098.87 71.5701 2091.48 78.8571C2084.1 86.1442 2072.23 86.1442 2064.84 78.8571C2057.46 71.5701 2045.58 71.5701 2038.2 78.8571C2030.81 86.1442 2018.94 86.1442 2011.56 78.8571C2004.17 71.5701 1992.3 71.5701 1984.91 78.8571C1977.53 86.1442 1965.66 86.1442 1958.27 78.8571C1950.89 71.5701 1939.02 71.5701 1931.63 78.8571C1924.24 86.1442 1912.37 86.1442 1904.99 78.8571C1897.6 71.5701 1885.73 71.5701 1878.35 78.8571C1870.96 86.1442 1859.09 86.1442 1851.7 78.8571C1844.32 71.5701 1832.45 71.5701 1825.06 78.8571C1817.68 86.1442 1805.81 86.1442 1798.42 78.8571C1791.03 71.5701 1779.16 71.5701 1771.78 78.8571C1764.39 86.1442 1752.52 86.1442 1745.13 78.8571C1737.75 71.5701 1725.88 71.5701 1718.49 78.8571C1711.11 86.1442 1699.24 86.1442 1691.85 78.8571C1684.46 71.5701 1672.59 71.5701 1665.21 78.8571C1657.82 86.1442 1645.95 86.1442 1638.57 78.8571C1631.18 71.5701 1619.31 71.5701 1611.92 78.8571C1604.54 86.1442 1592.67 86.1442 1585.28 78.8571C1577.9 71.5701 1566.03 71.5701 1558.64 78.8571C1551.25 86.1442 1539.38 86.1442 1532 78.8571C1524.61 71.5701 1512.74 71.5701 1505.36 78.8571C1497.97 86.1442 1486.1 86.1442 1478.71 78.8571C1471.33 71.5701 1459.46 71.5701 1452.07 78.8571C1444.69 86.1442 1432.81 86.1442 1425.43 78.8571C1418.04 71.5701 1406.17 71.5701 1398.79 78.8571C1391.4 86.1442 1379.53 86.1442 1372.15 78.8571C1364.76 71.5701 1352.89 71.5701 1345.5 78.8571C1338.12 86.1442 1326.25 86.1442 1318.86 78.8571C1311.47 71.5701 1299.6 71.5701 1292.22 78.8571C1284.83 86.1442 1272.96 86.1442 1265.58 78.8571C1258.19 71.5701 1246.32 71.5701 1238.93 78.8571C1231.55 86.1442 1219.68 86.1442 1212.29 78.8571C1204.91 71.5701 1193.04 71.5701 1185.65 78.8571C1178.26 86.1442 1166.39 86.1442 1159.01 78.8571C1151.62 71.5701 1139.75 71.5701 1132.37 78.8571C1124.98 86.1442 1113.11 86.1442 1105.72 78.8571C1098.34 71.5701 1086.47 71.5701 1079.08 78.8571C1071.7 86.1442 1059.82 86.1442 1052.44 78.8571C1045.05 71.5701 1033.18 71.5701 1025.8 78.8571C1018.41 86.1442 1006.54 86.1442 999.155 78.8571C991.769 71.5701 979.898 71.5701 972.512 78.8571C965.126 86.1442 953.256 86.1442 945.87 78.8571C938.484 71.5701 926.614 71.5701 919.228 78.8571C911.842 86.1442 899.972 86.1442 892.586 78.8571C885.2 71.5701 873.33 71.5701 865.944 78.8571C858.558 86.1442 846.688 86.1442 839.302 78.8571C831.916 71.5701 820.045 71.5701 812.66 78.8571C805.273 86.1442 793.403 86.1442 786.017 78.8571C778.631 71.5701 766.761 71.5701 759.375 78.8571C751.989 86.1442 740.119 86.1442 732.733 78.8571C725.347 71.5701 713.477 71.5701 706.091 78.8571C698.705 86.1442 686.834 86.1442 679.449 78.8571C672.063 71.5701 660.192 71.5701 652.807 78.8571C645.421 86.1442 633.55 86.1442 626.165 78.8571C618.778 71.5701 606.908 71.5701 599.522 78.8571C592.136 86.1442 580.266 86.1442 572.88 78.8571C565.494 71.5701 553.624 71.5701 546.238 78.8571C538.852 86.1442 526.981 86.1442 519.596 78.8571C512.21 71.5701 500.339 71.5701 492.954 78.8571C485.568 86.1442 473.697 86.1442 466.312 78.8571C458.926 71.5701 447.055 71.5701 439.669 78.8571C432.283 86.1442 420.413 86.1442 413.027 78.8571C405.641 71.5701 393.771 71.5701 386.385 78.8571C378.999 86.1442 367.129 86.1442 359.743 78.8571C352.357 71.5701 340.486 71.5701 333.101 78.8571C325.715 86.1442 313.844 86.1442 306.458 78.8571C299.073 71.5701 287.202 71.5701 279.816 78.8571C272.431 86.1442 260.56 86.1442 253.174 78.8571C245.788 71.5701 233.918 71.5701 226.532 78.8571C219.146 86.1442 207.276 86.1442 199.89 78.8571C192.504 71.5701 180.634 71.5701 173.248 78.8571C165.862 86.1442 153.991 86.1442 146.605 78.8571C139.22 71.5701 127.349 71.5701 119.963 78.8571C112.578 86.1442 100.707 86.1442 93.3213 78.8571C85.9355 71.5701 74.0649 71.5701 66.6792 78.8571C59.293 86.1442 47.4229 86.1442 40.0371 78.8571C32.6509 71.5701 20.7808 71.5701 13.3945 78.8571C6.00879 86.1442 -5.86133 86.1442 -13.2476 78.8571C-20.6333 71.5701 -32.5039 71.5701 -39.8896 78.8571C-47.2754 86.1442 -59.146 86.1442 -66.5317 78.8571C-73.9175 71.5701 -85.7881 71.5701 -93.1738 78.8571C-100.56 86.1442 -112.43 86.1442 -119.816 78.8571C-127.202 71.5701 -139.072 71.5701 -146.458 78.8571C-153.844 86.1442 -165.714 86.1442 -173.101 78.8571C-180.486 71.5701 -192.356 71.5701 -199.743 78.8571C-207.128 86.1442 -218.999 86.1442 -226.385 78.8571C-233.771 71.5701 -245.641 71.5701 -253.027 78.8571C-260.413 86.1442 -272.283 86.1442 -279.669 78.8571C-287.055 71.5701 -298.925 71.5701 -306.311 78.8571C-313.697 86.1442 -325.567 86.1442 -332.953 78.8571C-340.339 71.5701 -352.209 71.5701 -359.595 78.8571C-366.981 86.1442 -378.852 86.1442 -386.238 78.8571C-393.624 71.5701 -405.494 71.5701 -412.88 78.8571C-420.266 86.1442 -432.136 86.1442 -439.522 78.8571C-446.908 71.5701 -458.778 71.5701 -466.164 78.8571C-473.55 86.1442 -485.42 86.1442 -492.806 78.8571C-500.192 71.5701 -512.062 71.5701 -519.448 78.8571C-526.834 86.1442 -538.705 86.1442 -546.09 78.8571C-553.477 71.5701 -565.347 71.5701 -572.733 78.8571C-580.119 86.1442 -591.989 86.1442 -599.375 78.8571C-606.761 71.5701 -618.631 71.5701 -626.017 78.8571C-633.403 86.1442 -645.273 86.1442 -652.659 78.8571C-660.045 71.5701 -671.916 71.5701 -679.301 78.8571C-686.687 86.1442 -698.558 86.1442 -705.943 78.8571C-713.33 71.5701 -725.2 71.5701 -732.585 78.8571C-739.972 86.1442 -751.842 86.1442 -759.228 78.8571C-766.614 71.5701 -778.484 71.5701 -785.87 78.8571C-793.256 86.1442 -805.126 86.1442 -812.512 78.8571C-819.898 71.5701 -831.769 71.5701 -839.154 78.8571C-846.54 86.1442 -858.411 86.1442 -865.796 78.8571C-873.182 71.5701 -885.053 71.5701 -892.438 78.8571C-899.825 86.1442 -911.695 86.1442 -919.081 78.8571C-926.467 71.5701 -938.337 71.5701 -945.723 78.8571C-953.109 86.1442 -964.979 86.1442 -972.365 78.8571C-979.751 71.5701 -991.622 71.5701 -999.007 78.8571C-1006.39 86.1442 -1018.26 86.1442 -1025.65 78.8571C-1033.04 71.5701 -1044.91 71.5701 -1052.29 78.8571C-1059.68 86.1442 -1071.55 86.1442 -1078.93 78.8571C-1086.32 71.5701 -1098.19 71.5701 -1105.58 78.8571C-1112.96 86.1442 -1124.83 86.1442 -1132.22 78.8571C-1139.6 71.5701 -1151.47 71.5701 -1158.86 78.8571C-1166.25 86.1442 -1178.12 86.1442 -1185.5 78.8571C-1192.89 71.5701 -1204.76 71.5701 -1212.14 78.8571C-1219.53 86.1442 -1231.4 86.1442 -1238.79 78.8571C-1246.17 71.5701 -1258.04 71.5701 -1265.43 78.8571C-1272.81 86.1442 -1284.69 86.1442 -1292.07 78.8571C-1299.46 71.5701 -1311.33 71.5701 -1318.71 78.8571C-1326.1 86.1442 -1337.97 86.1442 -1345.36 78.8571C-1352.74 71.5701 -1364.61 71.5701 -1372 78.8571C-1379.38 86.1442 -1391.25 86.1442 -1398.64 78.8571C-1406.03 71.5701 -1417.9 71.5701 -1425.28 78.8571C-1432.67 86.1442 -1444.54 86.1442 -1451.92 78.8571C-1459.31 71.5701 -1471.18 71.5701 -1478.57 78.8571C-1485.95 86.1442 -1497.82 86.1442 -1505.21 78.8571C-1512.59 71.5701 -1524.46 71.5701 -1531.85 78.8571C-1539.24 86.1442 -1551.11 86.1442 -1558.49 78.8571C-1565.88 71.5701 -1577.75 71.5701 -1585.13 78.8571C-1592.52 86.1442 -1604.39 86.1442 -1611.78 78.8571C-1619.16 71.5701 -1631.03 71.5701 -1638.42 78.8571C-1645.8 86.1442 -1657.68 86.1442 -1665.06 78.8571C-1672.45 71.5701 -1684.32 71.5701 -1691.7 78.8571C-1699.09 86.1442 -1710.96 86.1442 -1718.35 78.8571C-1725.73 71.5701 -1737.6 71.5701 -1744.99 78.8571C-1752.37 86.1442 -1764.24 86.1442 -1771.63 78.8571C-1779.02 71.5701 -1790.89 71.5701 -1798.27 78.8571C-1805.66 86.1442 -1817.53 86.1442 -1824.91 78.8571C-1832.3 71.5701 -1844.17 71.5701 -1851.56 78.8571C-1858.94 86.1442 -1870.81 86.1442 -1878.2 78.8571C-1885.58 71.5701 -1897.45 71.5701 -1904.84 78.8571C-1912.23 86.1442 -1924.1 86.1442 -1931.48 78.8571C-1938.87 71.5701 -1950.74 71.5701 -1958.12 78.8571C-1965.51 86.1442 -1977.38 86.1442 -1984.77 78.8571C-1992.15 71.5701 -2004.02 71.5701 -2011.41 78.8571C-2018.8 86.1442 -2030.67 86.1442 -2038.05 78.8571C-2045.44 71.5701 -2057.31 71.5701 -2064.69 78.8571C-2072.08 86.1442 -2083.95 86.1442 -2091.34 78.8571C-2098.72 71.5701 -2110.59 71.5701 -2117.98 78.8571C-2125.36 86.1442 -2137.23 86.1442 -2144.62 78.8571C-2152.01 71.5701 -2163.88 71.5701 -2171.26 78.8571C-2178.65 86.1442 -2190.52 86.1442 -2197.9 78.8571C-2205.29 71.5701 -2217.16 71.5701 -2224.55 78.8571C-2231.93 86.1442 -2243.8 86.1442 -2251.19 78.8571C-2258.57 71.5701 -2270.44 71.5701 -2277.83 78.8571C-2285.22 86.1442 -2297.09 86.1442 -2304.47 78.8571C-2311.86 71.5701 -2323.73 71.5701 -2331.12 78.8571C-2338.5 86.1442 -2350.37 86.1442 -2357.76 78.8571C-2365.14 71.5701 -2377.01 71.5701 -2384.4 78.8571C-2391.79 86.1442 -2403.66 86.1442 -2411.04 78.8571C-2418.43 71.5701 -2430.3 71.5701 -2437.68 78.8571C-2445.07 86.1442 -2456.94 86.1442 -2464.33 78.8571C-2471.71 71.5701 -2483.58 71.5701 -2490.97 78.8571C-2498.35 86.1442 -2510.22 86.1442 -2517.61 78.8571C-2525 71.5701 -2536.87 71.5701 -2544.25 78.8571C-2551.64 86.1442 -2563.51 86.1442 -2570.89 78.8571C-2578.28 71.5701 -2590.15 71.5701 -2597.54 78.8571C-2604.92 86.1442 -2616.79 86.1442 -2624.18 78.8571C-2631.56 71.5701 -2643.44 71.5701 -2650.82 78.8571C-2658.21 86.1442 -2670.08 86.1442 -2677.46 78.8571C-2684.85 71.5701 -2696.72 71.5701 -2704.11 78.8571C-2711.49 86.1442 -2723.36 86.1442 -2730.75 78.8571C-2738.13 71.5701 -2750 71.5701 -2757.39 78.8571C-2764.78 86.1442 -2776.65 86.1442 -2784.03 78.8571C-2791.42 71.5701 -2803.29 71.5701 -2810.67 78.8571C-2818.06 86.1442 -2829.93 86.1442 -2837.32 78.8571C-2844.7 71.5701 -2856.57 71.5701 -2863.96 78.8571C-2871.34 86.1442 -2883.21 86.1442 -2890.6 78.8571C-2897.99 71.5701 -2909.86 71.5701 -2917.24 78.8571C-2924.63 86.1442 -2936.5 86.1442 -2943.88 78.8571C-2951.27 71.5701 -2963.14 71.5701 -2970.53 78.8571C-2977.91 86.1442 -2989.78 86.1442 -2997.17 78.8571C-3004.55 71.5701 -3016.43 71.5701 -3023.81 78.8571C-3031.2 86.1442 -3043.07 86.1442 -3050.45 78.8571C-3057.84 71.5701 -3069.71 71.5701 -3077.1 78.8571C-3084.48 86.1442 -3096.35 86.1442 -3103.74 78.8571C-3111.12 71.5701 -3122.99 71.5701 -3130.38 78.8571C-3137.77 86.1442 -3149.64 86.1442 -3157.02 78.8571C-3164.41 71.5701 -3176.28 71.5701 -3183.66 78.8571C-3191.05 86.1442 -3202.92 86.1442 -3210.31 78.8571C-3217.69 71.5701 -3229.56 71.5701 -3236.95 78.8571C-3244.33 86.1442 -3256.2 86.1442 -3263.59 78.8571C-3270.98 71.5701 -3282.85 71.5701 -3290.23 78.8571C-3297.62 86.1442 -3309.49 86.1442 -3316.88 78.8571C-3324.26 71.5701 -3336.13 71.5701 -3343.52 78.8571C-3350.9 86.1442 -3362.77 86.1442 -3370.16 78.8571C-3377.55 71.5701 -3389.42 71.5701 -3396.8 78.8571C-3404.19 86.1442 -3416.06 86.1442 -3423.44 78.8571C-3430.83 71.5701 -3442.7 71.5701 -3450.09 78.8571C-3457.47 86.1442 -3469.34 86.1442 -3476.73 78.8571C-3484.11 71.5701 -3495.98 71.5701 -3503.37 78.8571C-3510.76 86.1442 -3522.63 86.1442 -3530.01 78.8571C-3537.4 71.5701 -3549.27 71.5701 -3556.65 78.8571C-3564.04 86.1442 -3575.91 86.1442 -3583.3 78.8571C-3590.68 71.5701 -3602.55 71.5701 -3609.94 78.8571C-3617.32 86.1442 -3629.19 86.1442 -3636.58 78.8571C-3643.97 71.5701 -3655.84 71.5701 -3663.22 78.8571C-3670.61 86.1442 -3682.48 86.1442 -3689.87 78.8571C-3697.25 71.5701 -3709.12 71.5701 -3716.51 78.8571C-3723.89 86.1442 -3735.76 86.1442 -3743.15 78.8571C-3750.54 71.5701 -3762.41 71.5701 -3769.79 78.8571C-3777.18 86.1442 -3789.05 86.1442 -3796.43 78.8571C-3803.82 71.5701 -3815.69 71.5701 -3823.08 78.8571C-3830.46 86.1442 -3842.33 86.1442 -3849.72 78.8571C-3857.1 71.5701 -3868.97 71.5701 -3876.36 78.8571C-3883.75 86.1442 -3895.62 86.1442 -3903 78.8571C-3910.39 71.5701 -3922.26 71.5701 -3929.64 78.8571C-3937.03 86.1442 -3948.9 86.1442 -3956.29 78.8571C-3963.67 71.5701 -3975.54 71.5701 -3982.93 78.8571C-3990.31 86.1442 -4002.19 86.1442 -4009.57 78.8571C-4016.96 71.5701 -4028.83 71.5701 -4036.21 78.8571C-4043.6 86.1442 -4055.47 86.1442 -4062.86 78.8571C-4070.24 71.5701 -4082.11 71.5701 -4089.5 78.8571C-4096.88 86.1442 -4108.75 86.1442 -4116.14 78.8571C-4123.53 71.5701 -4135.4 71.5701 -4142.78 78.8571C-4150.17 86.1442 -4162.04 86.1442 -4169.42 78.8571C-4176.81 71.5701 -4188.68 71.5701 -4196.07 78.8571C-4203.45 86.1442 -4215.32 86.1442 -4222.71 78.8571C-4230.09 71.5701 -4241.96 71.5701 -4249.35 78.8571C-4256.74 86.1442 -4268.61 86.1442 -4275.99 78.8571C-4283.38 71.5701 -4295.25 71.5701 -4302.63 78.8571C-4310.02 86.1442 -4321.89 86.1442 -4329.28 78.8571C-4336.66 71.5701 -4348.53 71.5701 -4355.92 78.8571C-4363.3 86.1442 -4375.18 86.1442 -4382.56 78.8571C-4389.95 71.5701 -4401.82 71.5701 -4409.2 78.8571C-4416.59 86.1442 -4428.46 86.1442 -4435.85 78.8571C-4443.23 71.5701 -4455.1 71.5701 -4462.49 78.8571C-4469.87 86.1442 -4481.74 86.1442 -4489.13 78.8571C-4496.52 71.5701 -4508.39 71.5701 -4515.77 78.8571C-4523.16 86.1442 -4535.03 86.1442 -4542.41 78.8571C-4549.8 71.5701 -4561.67 71.5701 -4569.06 78.8571C-4576.44 86.1442 -4588.31 86.1442 -4595.7 78.8571C-4603.08 71.5701 -4614.95 71.5701 -4622.34 78.8571C-4629.73 86.1442 -4641.6 86.1442 -4648.98 78.8571C-4656.37 71.5701 -4668.24 71.5701 -4675.62 78.8571C-4683.01 86.1442 -4694.88 86.1442 -4702.27 78.8571C-4709.65 71.5701 -4721.52 71.5701 -4728.91 78.8571C-4736.3 86.1442 -4748.17 86.1442 -4755.55 78.8571C-4762.94 71.5701 -4774.81 71.5701 -4782.19 78.8571C-4789.58 86.1442 -4801.45 86.1442 -4808.84 78.8571C-4816.22 71.5701 -4828.09 71.5701 -4835.48 78.8571C-4842.86 86.1442 -4854.73 86.1442 -4862.12 78.8571C-4869.51 71.5701 -4881.38 71.5701 -4888.76 78.8571C-4896.15 86.1442 -4908.02 86.1442 -4915.4 78.8571C-4922.79 71.5701 -4934.66 71.5701 -4942.05 78.8571C-4949.43 86.1442 -4961.3 86.1442 -4968.69 78.8571C-4976.07 71.5701 -4987.95 71.5701 -4995.33 78.8571C-5002.72 86.1442 -5014.59 86.1442 -5021.97 78.8571C-5029.36 71.5701 -5041.23 71.5701 -5048.62 78.8571C-5056 86.1442 -5067.87 86.1442 -5075.26 78.8571C-5082.64 71.5701 -5094.51 71.5701 -5101.9 78.8571C-5109.29 86.1442 -5121.16 86.1442 -5128.54 78.8571C-5135.93 71.5701 -5147.8 71.5701 -5155.18 78.8571C-5162.57 86.1442 -5174.44 86.1442 -5181.83 78.8571C-5189.21 71.5701 -5201.08 71.5701 -5208.47 78.8571C-5215.85 86.1442 -5227.72 86.1442 -5235.11 78.8571C-5242.5 71.5701 -5254.37 71.5701 -5261.75 78.8571C-5269.14 86.1442 -5281.01 86.1442 -5288.39 78.8571C-5295.78 71.5701 -5307.65 71.5701 -5315.04 78.8571C-5322.42 86.1442 -5334.29 86.1442 -5341.68 78.8571Z" fill="#FAFAFA"/>
</svg>
