<svg width="179" height="249" viewBox="0 0 179 249" fill="none" xmlns="http://www.w3.org/2000/svg">
<path d="M176.342 163.902L199.357 152.862C202.151 151.521 204.299 149.125 205.327 146.201C208.78 136.379 198.634 127.284 189.247 131.788L171.831 140.143C165.256 143.297 157.37 140.524 154.216 133.95C142.862 110.282 114.471 100.3 90.8028 111.654C84.2284 114.808 76.3421 112.035 73.1881 105.461L67.9969 94.6402C65.2826 88.9822 58.5841 86.4779 52.8237 88.9676C46.7335 91.5998 44.0536 98.7681 46.9233 104.75L55.0587 121.708C62.1701 136.532 80.2185 142.656 95.0421 135.544C110.163 128.29 128.574 134.537 135.828 149.658C143.082 164.779 161.221 171.157 176.342 163.902Z" fill="#FC6049"/>
<path d="M177.606 158.666L200.62 147.625C203.415 146.284 205.562 143.888 206.59 140.964C210.044 131.142 199.898 122.048 190.51 126.551L173.094 134.906C166.52 138.06 158.633 135.287 155.48 128.713C144.125 105.045 115.734 95.0632 92.0665 106.417C85.4921 109.571 77.6057 106.799 74.4518 100.224L69.2606 89.4034C66.5462 83.7453 59.8478 81.2411 54.0873 83.7308C47.9972 86.363 45.3173 93.5313 48.187 99.5132L56.3224 116.471C63.4338 131.295 81.4822 137.419 96.3057 130.307C111.427 123.053 129.838 129.3 137.092 144.421C144.346 159.542 162.484 165.92 177.606 158.666Z" fill="#FFD6C8"/>
</svg>
