<svg width="118" height="44" viewBox="0 0 118 44" fill="none" xmlns="http://www.w3.org/2000/svg">
<path d="M6.75163 14.821C6.7008 15.6383 6.66269 16.4556 6.63727 17.2729C6.61186 18.0903 6.57374 18.9459 6.52292 19.8398C6.72621 19.7632 6.87869 19.6866 6.98033 19.6099C7.08198 19.5333 7.19634 19.4695 7.32339 19.4184C8.23822 18.9331 9.14035 18.882 10.0298 19.2651C10.6905 19.5461 11.1987 19.9931 11.5545 20.606C11.9102 21.1935 12.0373 21.8448 11.9357 22.5599C11.8086 23.3006 11.4655 23.9264 10.9065 24.4372C10.3728 24.948 9.76294 25.229 9.07682 25.28C8.84811 25.28 8.64481 25.28 8.46693 25.28C8.31446 25.28 8.14928 25.2545 7.9714 25.2034C7.79351 25.1268 7.57751 25.0374 7.32339 24.9352C7.09469 24.8075 6.81516 24.6415 6.4848 24.4372C6.33233 25.6121 6.34504 26.7231 6.52292 27.7703C6.57374 28.0002 6.66268 28.1534 6.78974 28.23C6.94222 28.2811 7.10739 28.2939 7.28528 28.2683C7.59022 28.2428 7.99681 28.2173 8.50505 28.1917C9.0387 28.1406 9.58505 28.0896 10.1441 28.0385C10.7032 27.9874 11.2368 27.9491 11.7451 27.9235C12.2787 27.8725 12.698 27.8469 13.003 27.8469C13.3841 27.8214 13.7653 27.8086 14.1465 27.8086C14.5277 27.8086 14.8834 27.8725 15.2138 28.0002C15.7474 28.2045 16.1667 28.511 16.4717 28.9196C16.7766 29.3283 16.9672 29.7753 17.0435 30.2605C17.1451 30.7203 17.1197 31.2056 16.9672 31.7164C16.8402 32.2272 16.586 32.6869 16.2049 33.0956C15.8237 33.4787 15.4044 33.7597 14.947 33.9384C14.515 34.0917 14.0576 34.1939 13.5747 34.2449C13.1427 34.296 12.6091 34.3471 11.9738 34.3982C11.3385 34.4493 10.6778 34.5003 9.99165 34.5514C9.30552 34.577 8.63211 34.6025 7.9714 34.628C7.3361 34.6536 6.81516 34.6664 6.40857 34.6664C4.22314 34.6408 2.46972 33.6319 1.1483 31.6398C0.716298 31.0268 0.411355 30.3627 0.233472 29.6476C0.0555886 28.9324 -0.0206472 28.1917 0.00476473 27.4255C0.0555886 25.0757 0.119118 22.7515 0.195354 20.4528C0.27159 18.1541 0.347826 15.8299 0.424061 13.4801C0.449473 12.8927 0.601945 12.3052 0.881476 11.7178C1.16101 11.1303 1.52948 10.594 1.98689 10.1087C2.44431 9.62341 2.93984 9.22752 3.47349 8.92103C4.03255 8.61454 4.59161 8.43575 5.15068 8.38467C5.58268 8.33359 6.00198 8.30805 6.40857 8.30805C6.84057 8.30805 7.27257 8.33359 7.70457 8.38467C9.86458 8.64008 12.05 8.94657 14.2608 9.30415C14.3879 9.32969 14.515 9.35523 14.642 9.38077C14.7945 9.40631 14.9343 9.44462 15.0613 9.49571C15.8491 9.72558 16.459 10.1598 16.891 10.7983C17.3484 11.4368 17.539 12.1264 17.4627 12.8671C17.3611 13.6589 17.018 14.3357 16.4336 14.8976C15.8745 15.434 15.2011 15.7405 14.4133 15.8171C14.2354 15.8171 14.0576 15.8171 13.8797 15.8171C13.7272 15.7916 13.562 15.766 13.3841 15.7405C12.3168 15.5617 11.2749 15.3957 10.2585 15.2424C9.26741 15.0636 8.23822 14.9104 7.17092 14.7827C7.14551 14.7572 7.00575 14.7699 6.75163 14.821Z" fill="#313C58"/>
<path d="M38.3335 26.2761C39.0958 26.838 39.8328 27.3872 40.5443 27.9235C41.2812 28.4344 42.0182 28.9579 42.7551 29.4943C42.7806 29.5198 42.806 29.5454 42.8314 29.5709C42.8568 29.5709 42.8822 29.5837 42.9076 29.6092C43.6191 30.1456 44.0639 30.7586 44.2417 31.4482C44.445 32.1123 44.3688 32.7763 44.013 33.4404C43.6573 34.1045 43.0982 34.577 42.3358 34.8579C41.5735 35.1389 40.8111 35.1261 40.0488 34.8196C39.7184 34.6919 39.4008 34.5259 39.0958 34.3216C38.8163 34.1172 38.5368 33.9129 38.2572 33.7086C36.9358 32.6614 35.5636 31.7291 34.1405 30.9118C32.7174 30.0945 31.2435 29.3283 29.7188 28.6131C29.4901 28.5365 29.236 28.4599 28.9565 28.3833V29.3411C28.9565 30.0051 28.9565 30.6564 28.9565 31.2949C28.9819 31.9079 28.9819 32.5465 28.9565 33.2105C28.9056 33.9001 28.7278 34.4748 28.4228 34.9345C28.1179 35.3687 27.7367 35.7008 27.2793 35.9306C26.8473 36.135 26.3772 36.2499 25.8689 36.2754C25.3607 36.2754 24.9033 36.1733 24.4967 35.9689C23.4548 35.5092 22.8576 34.7047 22.7051 33.5553C22.6543 33.2999 22.6289 33.0956 22.6289 32.9423C22.5781 29.6476 22.5146 26.3655 22.4383 23.0963C22.3621 19.827 22.2986 16.545 22.2477 13.2502C22.2477 13.0459 22.2477 12.8416 22.2477 12.6372C22.2477 12.4329 22.2731 12.2286 22.324 12.0243C22.4256 11.2325 22.667 10.5684 23.0482 10.0321C23.4548 9.47017 24.052 9.04874 24.8397 8.76779C27.1522 8.00156 29.4393 7.63121 31.701 7.65675C33.9626 7.65675 36.2116 8.21866 38.4478 9.34246C39.9979 10.1342 41.2431 11.1559 42.1834 12.4074C43.149 13.6589 43.7335 15.1913 43.9368 17.0048C44.0893 18.4606 43.8097 19.8781 43.0982 21.2573C42.6662 22.1513 42.1198 22.9686 41.4591 23.7093C40.7984 24.4244 40.0615 25.0757 39.2483 25.6632C39.1212 25.7653 38.9815 25.8675 38.829 25.9697C38.6765 26.0463 38.5114 26.1484 38.3335 26.2761ZM28.6897 21.9469C29.6807 21.9469 30.6337 21.9342 31.5485 21.9086C32.4633 21.8831 33.3654 21.7298 34.2549 21.4489C34.9156 21.2446 35.4873 20.9253 35.9702 20.4911C36.4784 20.0314 36.9104 19.5078 37.2662 18.9203C37.8506 17.9242 37.8125 16.992 37.1518 16.1236C36.9231 15.8426 36.6563 15.5745 36.3513 15.3191C36.0718 15.0381 35.7669 14.7955 35.4365 14.5911C34.4454 14.0548 33.4163 13.7611 32.349 13.71C31.2817 13.6589 30.2017 13.6972 29.1089 13.8249C28.9819 13.8249 28.8421 13.876 28.6897 13.9782V21.9469Z" fill="#313C58"/>
<path d="M55.8879 24.0158C55.8625 24.1179 55.8371 24.1946 55.8117 24.2456C55.7863 24.2712 55.7736 24.3095 55.7736 24.3606C55.7228 25.4588 55.6846 26.5571 55.6592 27.6554C55.6592 28.7281 55.6338 29.8008 55.583 30.8735C55.5576 31.1289 55.5322 31.3716 55.5068 31.6014C55.4813 31.8313 55.4432 32.0612 55.3924 32.291C55.062 33.5681 54.2235 34.3216 52.8766 34.5514C51.606 34.7813 50.5768 34.3599 49.7891 33.2871C49.5858 33.0062 49.446 32.7125 49.3698 32.406C49.2935 32.0995 49.2554 31.7802 49.2554 31.4482C49.3062 28.5365 49.3444 25.6504 49.3698 22.7898C49.4206 19.9037 49.4714 17.0175 49.5223 14.1314C49.5223 13.3907 49.7001 12.7522 50.0559 12.2158C50.4371 11.6539 50.958 11.2708 51.6187 11.0665C53.0418 10.5557 54.2489 10.8366 55.2399 11.9093C55.5957 12.2924 55.9261 12.7011 56.231 13.1353C56.5359 13.5695 56.8282 14.0037 57.1077 14.4379C58.175 15.9703 59.2169 17.5028 60.2334 19.0353C61.2498 20.5677 62.279 22.1002 63.3209 23.6326C63.4226 23.7604 63.5242 23.9008 63.6259 24.0541C63.7529 24.2073 63.9054 24.3989 64.0833 24.6287C64.1341 24.0413 64.1722 23.4922 64.1976 22.9814C64.2485 22.4705 64.2993 21.9597 64.3501 21.4489C64.4772 19.9675 64.5915 18.4989 64.6932 17.0431C64.7948 15.5617 64.9346 14.0931 65.1125 12.6372C65.1887 12.0753 65.3666 11.5901 65.6461 11.1814C65.951 10.7728 66.3195 10.4663 66.7515 10.2619C67.2089 10.0321 67.6918 9.91713 68.2 9.91713C68.7082 9.91713 69.2165 10.0448 69.7247 10.3002C70.9191 10.9388 71.4527 11.9604 71.3257 13.3652C71.2748 14.0292 71.2113 14.7061 71.1351 15.3957C71.0843 16.0853 71.0334 16.7621 70.9826 17.4262C70.8556 19.2141 70.7285 21.0019 70.6014 22.7898C70.4744 24.5521 70.3473 26.3272 70.2202 28.1151C70.1694 28.7281 70.1059 29.3538 70.0297 29.9924C69.9788 30.6053 69.8899 31.2183 69.7628 31.8313C69.5595 32.904 69.1021 33.7341 68.3906 34.3216C67.7045 34.8835 66.8786 35.1133 65.9129 35.0112C64.9219 34.8835 64.0706 34.4493 63.359 33.7086C62.9016 33.1978 62.4442 32.6869 61.9868 32.1761C61.5548 31.6653 61.1355 31.1417 60.7289 30.6053C59.992 29.6348 59.2804 28.6642 58.5943 27.6937C57.9082 26.6976 57.2094 25.7142 56.4978 24.7437C56.3962 24.616 56.2945 24.501 56.1929 24.3989C56.1166 24.2712 56.015 24.1435 55.8879 24.0158Z" fill="#313C58"/>
<path d="M91.8936 42.6184L81.335 36.5313C78.1029 34.668 76.1139 31.2049 76.125 27.4599L76.1575 16.5038C76.1686 12.7915 78.1434 9.36532 81.3422 7.50919L91.8768 1.39623C95.0805 -0.462781 99.0269 -0.465582 102.233 1.38888L112.801 7.50131C116.017 9.36106 117.999 12.8056 117.999 16.5343V27.4807C117.999 31.2146 116.011 34.6632 112.789 36.521L102.212 42.6184C99.0168 44.4605 95.089 44.4605 91.8936 42.6184Z" fill="#313C58"/>
<path d="M86.6027 34.7293C85.8707 34.2283 85.4891 33.5787 85.4579 32.7803C85.4112 31.9819 85.7071 30.98 86.3457 29.7746C87.3581 27.8647 89.0013 25.4852 91.2754 22.6361L92.8174 20.7105L92.1165 19.5834C91.5869 18.7067 91.0495 17.7283 90.5044 16.6481C89.9592 15.5523 89.6166 14.7618 89.4764 14.2765C89.2895 13.6346 89.2038 13.0163 89.2194 12.4214C89.2506 11.8265 89.3752 11.3256 89.5932 10.9185C89.8113 10.4959 90.0916 10.1515 90.4343 9.88533C90.7925 9.60354 91.2053 9.46265 91.6725 9.46265C92.1398 9.46265 92.6382 9.58006 93.1678 9.81488C93.6039 10.0184 94.0556 10.4332 94.5229 11.0594C95.0057 11.6856 95.6132 12.664 96.3452 13.9947C96.9682 15.0905 97.2953 15.6619 97.3265 15.7089C97.3265 15.7245 97.4044 15.6697 97.5601 15.5445C97.7314 15.4036 97.9495 15.2157 98.2143 14.9809C98.4791 14.7461 98.7672 14.48 99.0787 14.1825C101.259 12.1631 103.027 10.7463 104.382 9.93229C105.753 9.11825 106.851 8.83646 107.676 9.08694C108.44 9.32176 108.712 9.79923 108.494 10.5193C108.292 11.2238 107.56 12.2961 106.298 13.7364C104.849 15.3801 103.494 16.9534 102.233 18.4563C100.971 19.9591 100.34 20.7575 100.34 20.8514C100.34 20.961 101.135 22.5656 102.723 25.6652C104.063 28.2952 104.873 29.9468 105.153 30.6199C105.434 31.2931 105.511 31.7549 105.387 32.0054C105.231 32.2872 104.99 32.4281 104.663 32.4281C104.351 32.4281 103.915 32.2872 103.354 32.0054C101.843 31.2383 100.083 29.7824 98.0741 27.6377C96.9527 26.4636 96.353 25.8766 96.2751 25.8766C96.2128 25.8766 95.5664 26.6984 94.336 28.3422C93.1211 29.9859 92.2255 31.2383 91.6492 32.0993C90.6368 33.6178 89.8191 34.5414 89.196 34.8702C88.8222 35.0737 88.3783 35.1598 87.8643 35.1285C87.3659 35.0972 86.9454 34.9641 86.6027 34.7293Z" fill="#FFA622"/>
</svg>
