<svg width="109" height="104" viewBox="0 0 109 104" fill="none" xmlns="http://www.w3.org/2000/svg">
<path d="M60.3067 31.5379L55.3949 2.85865C55.1371 1.35382 53.8007 0.27533 52.2754 0.341231C50.7136 0.40871 49.459 1.65261 49.3783 3.21383L47.9096 31.6C47.5401 38.7436 42.2358 44.6608 35.175 45.8063L2.7395 51.0686C1.23907 51.312 0.158082 52.6396 0.223694 54.1582C0.291083 55.7179 1.5439 56.9651 3.10396 57.0253L35.1676 58.2642C42.5407 58.5491 48.6422 64.0923 49.6312 71.4044L53.6033 100.771C53.8125 102.318 55.1662 103.45 56.7257 103.383C58.2501 103.317 59.4858 102.124 59.6054 100.603L61.9796 70.4126C62.5434 63.2439 68.0575 57.4531 75.19 56.5393L106.066 52.5838C107.616 52.3852 108.756 51.0321 108.689 49.4705C108.623 47.9514 107.434 46.7202 105.918 46.6017L74.0927 44.115C67.1598 43.5733 61.4806 38.3921 60.3067 31.5379Z" fill="#A0D2FF"/>
</svg>
