<svg width="78" height="24" viewBox="0 0 78 24" fill="none" xmlns="http://www.w3.org/2000/svg">
<path d="M11.2431 5.664C11.2111 6.144 11.1471 6.592 11.1471 7.008C10.9871 11.104 10.6671 16.672 10.5391 20.8C10.4751 22.4 9.70713 23.36 8.23513 23.616C6.85913 23.84 5.54713 22.912 5.32313 21.504C5.25913 21.024 5.22713 20.48 5.22713 20C5.41913 15.68 5.73913 9.92 5.93113 5.6C5.93113 5.504 5.89913 5.376 5.89913 5.216C5.19513 5.184 4.52313 5.184 3.85113 5.312C2.60313 5.536 1.35513 4.864 0.939125 3.744C0.459125 2.528 1.03513 1.152 2.37913 0.639999C3.17913 0.351999 4.04313 0.159998 4.87513 0.191999C6.66713 0.223999 8.45913 0.383999 10.2191 0.511999C10.9231 0.575998 11.6271 0.575998 12.3631 0.639999C13.1951 0.735998 14.0591 0.768 14.8911 0.959999C16.3951 1.28 17.2271 2.432 16.9711 3.776C16.7471 5.12 15.4031 6.016 13.8991 5.856C13.1631 5.76 12.4271 5.728 11.6911 5.664C11.5951 5.664 11.4671 5.664 11.2431 5.664ZM25.5714 16.608C26.3074 17.28 26.9794 17.504 27.7474 17.44C28.3554 17.408 28.9314 17.28 29.5394 17.216C31.1394 17.056 32.7714 18.176 32.5474 20C32.3874 21.12 31.6514 21.792 30.6274 22.112C30.0514 22.272 29.4434 22.368 28.8354 22.432C25.6354 22.816 22.9474 21.792 20.8034 19.392C20.0354 18.496 19.5554 17.44 19.2674 16.32C18.8194 14.336 18.8194 12.352 19.3954 10.432C20.3554 7.232 23.5234 4.96 26.8834 4.992C28.0354 5.024 29.1234 5.184 30.1794 5.568C34.1474 7.136 35.0114 11.808 31.9074 14.688C30.4674 16 28.7714 16.704 26.7874 16.608C26.4674 16.608 26.1154 16.608 25.5714 16.608ZM24.7394 11.456C25.6034 11.488 26.3714 11.552 27.1074 11.52C27.4914 11.52 27.8754 11.296 28.1634 11.072C28.5154 10.784 28.4514 10.432 28.0354 10.24C26.8514 9.664 25.4754 10.144 24.7394 11.456ZM47.5656 19.904C47.3096 20.064 47.0856 20.224 46.8616 20.352C42.7016 22.816 37.1336 20.576 35.9816 15.936C35.1816 12.8 36.5896 9.152 39.3416 7.168C41.6456 5.536 44.2056 4.864 47.0216 5.216C47.7256 5.312 48.4296 5.376 49.1656 5.28C50.8936 5.088 52.0776 6.144 52.1736 7.936C52.2376 9.728 52.2056 11.552 52.3656 13.344C52.5256 15.552 52.7816 17.76 53.1656 19.936C53.4536 21.696 52.4296 22.784 51.4056 23.104C49.9656 23.488 48.5576 22.848 48.0136 21.44C47.8216 20.992 47.7256 20.48 47.5656 19.904ZM46.7656 10.272C46.0616 10.272 45.3896 10.208 44.7816 10.304C42.7656 10.56 41.3256 12 41.1656 13.92C41.1016 14.88 41.5176 15.776 42.3176 16.128C44.6536 17.216 47.4376 12.064 46.7656 10.272ZM67.0306 8.352C68.0226 7.488 69.1106 6.912 70.2946 6.56C72.0546 6.048 73.5906 6.464 74.9026 7.712C76.5986 9.376 77.5586 11.392 77.6546 13.664C77.7506 15.616 77.6226 17.568 77.4946 19.488C77.3986 20.928 76.1186 21.856 74.6786 21.824C73.2386 21.728 72.1506 20.608 72.1826 19.104C72.2146 17.632 72.3426 16.128 72.3426 14.624C72.0866 10.56 69.5586 11.616 69.1746 15.104C69.0466 16.288 69.1106 17.504 69.1746 18.688C69.2066 19.04 69.2066 19.392 69.1426 19.744C68.9506 21.024 67.9586 21.92 66.7106 21.984C65.2706 22.048 64.1506 21.28 63.8626 19.936C63.7346 19.392 63.7026 18.752 63.7346 18.144C63.7346 17.344 63.7346 16.544 63.6386 15.744C63.1266 11.168 60.5986 10.752 60.8226 15.84C60.8546 16.608 60.8546 17.376 60.8866 18.176C60.9186 18.464 60.9826 18.752 61.0146 19.04C61.1426 20.544 60.3426 21.632 58.9026 21.92C57.6226 22.176 56.2146 21.44 55.8306 20.128C55.6386 19.616 55.6066 19.04 55.5426 18.432C55.3826 16.672 55.2226 14.912 55.4466 13.12C55.6706 11.488 56.2146 9.984 57.2386 8.672C57.8786 7.84 58.6146 7.168 59.5746 6.656C61.8146 5.472 64.8226 6.048 66.3266 7.552C66.5506 7.808 66.7426 8.032 67.0306 8.352Z" fill="#313C58"/>
</svg>
