<svg width="1280" height="60" viewBox="0 0 1280 60" fill="none" xmlns="http://www.w3.org/2000/svg">
<circle cx="-13" cy="30" r="30" fill="#FAFAFA"/>
<circle cx="32" cy="30" r="30" fill="#FAFAFA"/>
<circle cx="77" cy="30" r="30" fill="#FAFAFA"/>
<circle cx="122" cy="30" r="30" fill="#FAFAFA"/>
<circle cx="167" cy="30" r="30" fill="#FAFAFA"/>
<circle cx="212" cy="30" r="30" fill="#FAFAFA"/>
<circle cx="257" cy="30" r="30" fill="#FAFAFA"/>
<circle cx="302" cy="30" r="30" fill="#FAFAFA"/>
<circle cx="347" cy="30" r="30" fill="#FAFAFA"/>
<circle cx="392" cy="30" r="30" fill="#FAFAFA"/>
<circle cx="437" cy="30" r="30" fill="#FAFAFA"/>
<circle cx="482" cy="30" r="30" fill="#FAFAFA"/>
<circle cx="527" cy="30" r="30" fill="#FAFAFA"/>
<circle cx="572" cy="30" r="30" fill="#FAFAFA"/>
<circle cx="617" cy="30" r="30" fill="#FAFAFA"/>
<circle cx="662" cy="30" r="30" fill="#FAFAFA"/>
<circle cx="707" cy="30" r="30" fill="#FAFAFA"/>
<circle cx="752" cy="30" r="30" fill="#FAFAFA"/>
<circle cx="797" cy="30" r="30" fill="#FAFAFA"/>
<circle cx="842" cy="30" r="30" fill="#FAFAFA"/>
<circle cx="887" cy="30" r="30" fill="#FAFAFA"/>
<circle cx="932" cy="30" r="30" fill="#FAFAFA"/>
<circle cx="977" cy="30" r="30" fill="#FAFAFA"/>
<circle cx="1022" cy="30" r="30" fill="#FAFAFA"/>
<circle cx="1067" cy="30" r="30" fill="#FAFAFA"/>
<circle cx="1112" cy="30" r="30" fill="#FAFAFA"/>
<circle cx="1157" cy="30" r="30" fill="#FAFAFA"/>
<circle cx="1202" cy="30" r="30" fill="#FAFAFA"/>
<circle cx="1247" cy="30" r="30" fill="#FAFAFA"/>
<circle cx="1292" cy="30" r="30" fill="#FAFAFA"/>
</svg>
