<svg width="46" height="44" viewBox="0 0 46 44" fill="none" xmlns="http://www.w3.org/2000/svg">
<path d="M25.1573 10.3503L23.7287 2.00883C23.6221 1.38665 23.0696 0.940744 22.4389 0.967991C21.7932 0.99589 21.2745 1.51018 21.2411 2.15567L20.8084 10.5192C20.5538 15.4407 16.8994 19.5174 12.0349 20.3066L1.95811 21.9414C1.33775 22.0421 0.890811 22.5909 0.917938 23.2188C0.9458 23.8637 1.46379 24.3793 2.10879 24.4043L11.6959 24.7747C16.866 24.9745 21.1444 28.8614 21.8379 33.9887L22.9879 42.4911C23.0744 43.1307 23.6341 43.5989 24.2789 43.571C24.9092 43.5438 25.4201 43.0506 25.4695 42.4217L26.1484 33.7891C26.5579 28.5823 30.5629 24.3763 35.7435 23.7126L44.6788 22.5679C45.3198 22.4858 45.7911 21.9263 45.7632 21.2807C45.736 20.6526 45.2444 20.1435 44.6176 20.0946L35.0158 19.3443C30.0581 18.957 25.9968 15.2518 25.1573 10.3503Z" fill="white"/>
</svg>
<svg width="46" height="44" viewBox="0 0 46 44" fill="none" xmlns="http://www.w3.org/2000/svg">
<path d="M25.1573 10.3503L23.7287 2.00883C23.6221 1.38665 23.0696 0.940744 22.4389 0.967991C21.7932 0.99589 21.2745 1.51018 21.2411 2.15567L20.8084 10.5192C20.5538 15.4407 16.8994 19.5174 12.0349 20.3066L1.95811 21.9414C1.33775 22.0421 0.890811 22.5909 0.917938 23.2188C0.9458 23.8637 1.46379 24.3793 2.10879 24.4043L11.6959 24.7747C16.866 24.9745 21.1444 28.8614 21.8379 33.9887L22.9879 42.4911C23.0744 43.1307 23.6341 43.5989 24.2789 43.571C24.9092 43.5438 25.4201 43.0506 25.4695 42.4217L26.1484 33.7891C26.5579 28.5823 30.5629 24.3763 35.7435 23.7126L44.6788 22.5679C45.3198 22.4858 45.7911 21.9263 45.7632 21.2807C45.736 20.6526 45.2444 20.1435 44.6176 20.0946L35.0158 19.3443C30.0581 18.957 25.9968 15.2518 25.1573 10.3503Z" fill="white"/>
</svg>
