<svg width="22" height="22" viewBox="0 0 22 22" fill="none" xmlns="http://www.w3.org/2000/svg">
<path d="M8.46017 20.6418L3.50415 17.8364C1.98707 16.9776 1.05351 15.3816 1.05872 13.6556L1.07397 8.60618C1.07914 6.89528 2.00611 5.31625 3.50752 4.4608L8.45225 1.64349C9.95599 0.786716 11.8084 0.785425 13.3133 1.6401L18.2738 4.45717C19.783 5.31428 20.7133 6.9018 20.7133 8.62025V13.6652C20.7133 15.386 19.7804 16.9754 18.2678 17.8316L13.3034 20.6418C11.8036 21.4908 9.95998 21.4908 8.46017 20.6418Z" fill="url(#paint0_linear_7_3097)" stroke="#FFA622" stroke-width="1.02487"/>
<path d="M6.21394 17.0059C5.87033 16.775 5.69121 16.4756 5.67659 16.1076C5.65466 15.7397 5.79356 15.2779 6.09331 14.7224C6.56851 13.8422 7.3398 12.7455 8.40719 11.4324L9.13096 10.545L8.80197 10.0255C8.5534 9.62149 8.30118 9.17056 8.0453 8.67273C7.78942 8.16769 7.62858 7.80334 7.56279 7.57968C7.47505 7.28387 7.43485 6.99889 7.44216 6.72472C7.45678 6.45056 7.51526 6.21968 7.61762 6.0321C7.71997 5.8373 7.85156 5.67857 8.0124 5.55592C8.18055 5.42605 8.37429 5.36112 8.59361 5.36112C8.81294 5.36112 9.04688 5.41523 9.29545 5.52345C9.50016 5.61724 9.71217 5.80844 9.93149 6.09703C10.1581 6.38563 10.4433 6.83655 10.7869 7.44982C11.0793 7.95486 11.2328 8.2182 11.2474 8.23984C11.2474 8.24706 11.284 8.22181 11.3571 8.16409C11.4375 8.09915 11.5399 8.01257 11.6642 7.90435C11.7884 7.79613 11.9237 7.67348 12.0699 7.53639C13.0934 6.60568 13.9232 5.95273 14.5593 5.57756C15.2026 5.20239 15.718 5.07252 16.1055 5.18796C16.4637 5.29618 16.5917 5.51624 16.4893 5.84812C16.3943 6.17279 16.0507 6.667 15.4585 7.33077C14.7786 8.08833 14.1425 8.81342 13.5504 9.50605C12.9582 10.1987 12.6621 10.5666 12.6621 10.6099C12.6621 10.6604 13.0349 11.3999 13.7806 12.8285C14.4094 14.0406 14.7895 14.8018 14.9211 15.112C15.0527 15.4222 15.0893 15.6351 15.0308 15.7505C14.9577 15.8804 14.8444 15.9453 14.6908 15.9453C14.5446 15.9453 14.3399 15.8804 14.0767 15.7505C13.3676 15.397 12.5415 14.726 11.5984 13.7376C11.072 13.1964 10.7905 12.9259 10.754 12.9259C10.7247 12.9259 10.4213 13.3047 9.84376 14.0622C9.27352 14.8198 8.85315 15.397 8.58265 15.7938C8.10744 16.4936 7.72362 16.9193 7.43119 17.0708C7.25573 17.1646 7.04737 17.2043 6.80611 17.1899C6.57217 17.1754 6.37477 17.1141 6.21394 17.0059Z" fill="#FFF6E9"/>
<defs>
<linearGradient id="paint0_linear_7_3097" x1="0.751283" y1="11.2487" x2="20.2238" y2="11.2487" gradientUnits="userSpaceOnUse">
<stop stop-color="#FFD08A"/>
<stop offset="1.0001" stop-color="#EA8C00"/>
</linearGradient>
</defs>
</svg>
